<?xml version="1.0" encoding="utf-8"?>
<!-- Generator: Adobe Illustrator 19.2.1, SVG Export Plug-In . SVG Version: 6.00 Build 0)  -->
<svg version="1.1" id="Layer_1" xmlns="http://www.w3.org/2000/svg" xmlns:xlink="http://www.w3.org/1999/xlink" x="0px" y="0px"
	 viewBox="0 0 2124 1653" style="enable-background:new 0 0 2124 1653;" xml:space="preserve">
<style type="text/css">
	.st0{fill:#EF0612;}
	.st1{fill:#FFFFFF;}
</style>
<g>
	<path class="st0" d="M2125,527c0,90.7,0,181.3,0,272c-2.4-0.4-4.8-1.1-7.2-1.1c-703.6,0-1407.2,0-2110.8,0c-2,0-4,0.1-6,0.2
		c0-91.7,0-183.3,0-275c0.4-0.5,1-0.9,1.1-1.4c2-10.9,3.5-22,6.2-32.8c6.7-26.6,20.1-49.8,38.1-70.2c17.9-20.3,39.1-36.1,64-47.1
		c21.1-9.3,43.2-15.1,66.2-15.2c114-0.4,228-0.2,342-0.2c13.6,0,14,0,13.5-13.8c-0.5-11.6,9.4-19.9,19.5-19.4
		c8.1,0.4,16.2,0.1,24.7,0.1c0-2.6,0-4.6,0-6.6c0-47-0.2-94,0.2-141c0.1-9.1,1.6-18.3,3.4-27.3c3.6-18.1,9.6-35.5,19.2-51.3
		c6.7-11,13.7-22.1,22.1-31.9c12.1-14,26.1-26,42.2-35.8C691.5,12.1,722,2.4,754.7,2.3c201.8-0.4,403.7-0.3,605.5,0
		c14.4,0,29,1.6,43.2,4c32.7,5.5,61,20.9,85.6,42.7c20.6,18.3,36.2,40.5,46.8,66c9,21.7,13.8,44.2,13.9,67.6
		c0.3,44.7,0.1,89.3,0.1,134c0,2,0,3.9,0,6.4c10,0,19.4-0.1,28.9,0c6.3,0.1,11.1,2.8,14.9,8c4.1,5.5,3.2,11.6,3.3,17.6
		c0.1,7.5,0,7.5,7.3,7.5c114.7,0,229.3,0,344,0c5.4,0,10.9,0.2,16.3,1.1c16.8,2.7,33.2,6.8,49,13.6c18.3,7.9,35,18.1,49.7,31.3
		c13.4,12.1,25.1,25.7,34.5,41.3c13.1,21.8,21.9,45,25,70.3C2123.4,518.2,2124.3,522.6,2125,527z M1460.1,323c0-2.7,0-4.7,0-6.7
		c0-45.8,0.1-91.7-0.1-137.5c0-5.8-1.3-11.7-2.8-17.4c-5.4-20.6-16.8-37.5-33.6-50.4c-14.8-11.3-31.5-19-50.3-19
		c-207-0.3-414-0.2-620.9-0.2c-1.3,0-2.7-0.1-4,0.1c-17.6,2.9-33.7,9-47.8,20.4c-22.7,18.5-35,42.4-35.6,71.3
		c-0.9,44.6-0.2,89.3-0.2,134c0,1.6,0.1,3.2,0.2,4.7c0.6,0.3,0.9,0.5,1.2,0.5c9,0.1,18-0.1,27,0.2c6.8,0.2,13,2.9,15.4,9.6
		c1.8,4.9,2,10.5,2.3,15.9c0.4,7.6,0.1,7.6,7.8,7.6c228.1,0,456.3,0,684.4,0c13.6,0,13.6,0,13.9-13.4c0-0.5,0-1,0-1.5
		c1.2-11.7,11.4-19.1,20-18.3C1444.5,323.6,1452,323,1460.1,323z M843,520.3c-7.5,0-14.2,0-20.8,0c0,35.1,0,69.8,0,104.5
		c7.1,0,13.9,0,21.2,0c-1.1-10.9-1.6-21.4,9.2-27.8c5,8.6,10,17.3,15.2,25.8c0.6,1.1,2.2,2.2,3.3,2.2c7.1,0.2,14.2,0.1,22.1,0.1
		c-8.9-14-17.3-27.2-25.9-40.3c-1.5-2.2-2-3.5,0.1-5.7c3.5-3.7,6.6-7.8,9.9-11.7c4.5-5.3,9-10.6,14-16.5c-7.9,0-14.7-0.1-21.5,0.1
		c-1.6,0.1-3.5,1.1-4.6,2.3c-3.7,4.2-7,8.7-10.5,13.1c-3.5,4.4-7.2,8.6-11.7,14.1C843,559.3,843,539.9,843,520.3z M1039.1,624.9
		c0-2.1,0-3.8,0-5.6c0-12.8,0.2-25.7-0.1-38.5c-0.1-4.2,1.1-7.1,4.4-9.5c4.3-3.2,9-4.4,13.9-2.2c4.4,2,4.5,6.5,4.5,10.6
		c0.1,13.3,0,26.7,0,40c0,1.8,0.1,3.5,0.2,5.1c7.7,0,14.8,0,21.1,0c0-18.5,0.6-36.6-0.2-54.7c-0.8-19.5-20.5-25.5-33.7-18.2
		c-4.4,2.4-8.6,5.1-12.7,7.6c-0.6-2.8-1.3-5.6-1.9-8.2c-6.1,0-11.7,0-17.5,0c0,24.7,0,49.1,0,73.7
		C1024.5,624.9,1031.5,624.9,1039.1,624.9z M642.2,599.3c-4.2,2.6-7.5,5.2-11.2,6.9c-10,4.6-21.5,0.7-26.8-8.9
		c-7-12.8-7-26.1-1.4-39.3c3.9-9.4,12.8-15.1,22.4-13.5c5.4,0.9,10.4,4.3,15.8,6.7c3.3-4,7.1-8.8,11-13.6
		c-11.7-10.8-24.9-15-39.9-11.4c-14.4,3.5-24.7,12.2-30.5,26c-4.7,11.2-5.6,22.7-4,34.7c2.4,18.5,13.3,34.3,32.2,38.9
		c16.7,4.1,31.1-0.1,43.8-12.7C649.7,608.2,645.8,603.6,642.2,599.3z M1170.8,576.4c-6.2,1.2-12.2,2.1-18.1,3.6
		c-11,2.8-20.9,7.3-23.4,20.1c-2.9,14.6,8.2,30.4,26.5,26.1c6.2-1.5,12-4.8,17.8-7.2c0.4,1.4,1,3.7,1.6,5.9c6,0,11.8,0,17.9,0
		c0-6.3,0.1-12.3,0-18.2c-0.3-11.4-0.2-22.9-1.1-34.3c-0.8-9.8-5.9-17.8-15.4-21c-16-5.5-30.8-0.9-45.1,7.4c2.8,5,5.3,9.6,7.6,13.8
		c5.5-2,10.6-4.2,15.9-5.7C1163.4,564.3,1168.5,567.5,1170.8,576.4z M929.8,593.5c-0.2,11.9,9.7,27.4,25.7,31.9
		c17.3,4.8,36-3,42.8-19.1c3.6-8.4,4.2-17.2,3-26.5c-3.3-26.1-33.1-39.8-55.6-24.9C934.4,562.6,929.9,574.4,929.8,593.5z
		 M1375.8,588.1c0,17.9,9.8,32.9,26,37.5c17.1,4.8,36.1-3.4,42.7-19.5c3.5-8.5,4.1-17.2,2.8-26.5c-3.4-25-31.7-39-54.1-25.4
		C1380.6,561.8,1376,574,1375.8,588.1z M1292.8,587.9c-0.2,17.6,9.7,33.1,25.8,37.6c17.2,4.8,36-3.1,42.8-19.2
		c3.6-8.5,4.1-17.2,3-26.5c-3.2-25.6-32.6-39.5-54.8-25.2C1297.5,562.3,1293.1,574.1,1292.8,587.9z M1283.7,608.3
		c-1.4,0.4-2.7,0.9-4.1,1.3c-6.6,1.7-12-2.1-12.4-8.9c-0.2-3.8-0.1-7.7-0.1-11.5c0-6.9,0-13.8,0-21.2c6.4,0,12,0,17.7,0
		c0-5.8,0-11.2,0-17.3c-6,0-11.7,0-17.9,0c0-6.9,0-13.1,0-19.6c-6.2,0-12,0-18.1,0c-0.7,4.4-1.9,8.6-1.9,12.7c0,6.4-0.3,6.8-8.3,8
		c-1.1,0.2-2.2,0.2-3.6,0.3c0,5.3,0,10.4,0,15.8c3.3,0.2,6.4,0.3,9.2,0.5c0.2,0.8,0.4,1.1,0.4,1.4c0,10.3-0.3,20.7,0.2,31
		c0.4,8.5,2.1,16.7,10,21.8c9.6,6.4,20,4.8,30.3,2.3c0.7-0.2,1.5-2,1.3-3C1285.8,617.4,1284.7,613,1283.7,608.3z M799.9,603.9
		c-12,10.2-21.9,5.7-26.3-2.1c-3.2-5.5-4.2-11.6-3.3-17.7c1-7.2,3.6-13.8,11-16.9c6.2-2.6,11.5-0.6,16.2,3.6
		c3.5-4.8,7-9.6,10.4-14.3c-20-14.5-42.6-5.5-51.4,5.4c-13,16.1-10.9,41.1,1.4,54.6c11.2,12.4,34,14.8,50.9,2
		C805.9,613.7,802.9,608.8,799.9,603.9z M1491.6,609.9c-6,0.9-6.5-3-6.5-7.4c0-25.5,0-51,0-76.5c0-1.9,0-3.9,0-5.8
		c-7.8,0-14.8,0-21.8,0c-0.2,0.7-0.4,1-0.4,1.3c0,28.3-0.3,56.6,0.1,85c0.1,4.6,1.9,9.9,4.6,13.6c6.1,8.3,15.8,8.4,24.2,5.9
		c1-0.3,2.1-2.9,2-4.2C1493.5,617.9,1492.5,614.3,1491.6,609.9z M695.6,610c-5.9,0.7-6.5-3-6.5-7.5c0-25.5,0-51,0-76.5
		c0-1.9,0-3.9,0-5.8c-7.8,0-14.9,0-21.8,0c-0.2,0.7-0.4,1-0.4,1.3c0,28.3-0.3,56.6,0.1,85c0.1,4.6,1.9,9.9,4.6,13.6
		c6.1,8.3,15.8,8.3,24.2,5.9c1-0.3,2.1-2.9,2-4.3C697.5,617.9,696.5,614.3,695.6,610z M731.8,625c0-24.9,0-49.3,0-73.7
		c-7.4,0-14.5,0-21.6,0c0,24.8,0,49.2,0,73.7C717.5,625,724.5,625,731.8,625z M1510.4,525.1c1.1,22,2.1,43.4,3.1,64.9
		c5.3,0,9.6,0,15,0c1.4-21.7,2.7-43.2,4.1-64.9C1524.7,525.1,1518.1,525.1,1510.4,525.1z M1521.3,627.1c7.1,0.1,13.7-6.4,13.9-13.8
		c0.2-7.2-6.3-14.6-13.4-14.3c-7.2,0.2-13.3,5-13.8,13.9C1507.5,620.1,1514.2,627,1521.3,627.1z M733.1,528.7
		c0.1-6.6-5.3-11.7-12.3-11.8c-7.1-0.1-13,4.9-13,11.2c0,6.8,5.5,12.1,12.6,12.1C727.5,540.2,733.1,535.1,733.1,528.7z"/>
	<path class="st1" d="M2125,527c-0.7-4.4-1.6-8.8-2.1-13.2c-3.1-25.3-12-48.5-25-70.3c-9.3-15.6-21.1-29.2-34.5-41.3
		c-14.7-13.3-31.5-23.4-49.7-31.3c-15.8-6.8-32.2-10.9-49-13.6c-5.4-0.9-10.9-1.1-16.3-1.1c-114.7-0.1-229.3,0-344,0
		c-7.3,0-7.3,0-7.3-7.5c-0.1-6,0.8-12.1-3.3-17.6c-3.8-5.1-8.6-7.9-14.9-8c-9.5-0.1-18.9,0-28.9,0c0-2.5,0-4.4,0-6.4
		c0-44.7,0.2-89.3-0.1-134c-0.1-23.4-5-45.9-13.9-67.6c-10.6-25.6-26.2-47.7-46.8-66c-24.6-21.8-52.9-37.2-85.6-42.7
		c-14.2-2.4-28.8-4-43.2-4c-201.8-0.3-403.7-0.3-605.5,0c-32.8,0.1-63.3,9.8-91.5,26.9C647.2,39,633.2,51,621.1,65
		c-8.4,9.7-15.4,20.8-22.1,31.9c-9.6,15.8-15.7,33.2-19.2,51.3c-1.8,9-3.4,18.2-3.4,27.3c-0.3,47-0.2,94-0.2,141c0,2,0,3.9,0,6.6
		c-8.5,0-16.6,0.3-24.7-0.1c-10.1-0.5-20,7.9-19.5,19.4c0.6,13.8,0.1,13.8-13.5,13.8c-114,0-228-0.2-342,0.2
		c-23,0.1-45.1,5.9-66.2,15.2c-24.9,10.9-46.1,26.8-64,47.1c-18,20.4-31.4,43.7-38.1,70.2c-2.7,10.8-4.1,21.8-6.2,32.8
		C2,522.1,1.4,522.5,1,523C1,349,1,175.1,1,1c708,0,1416,0,2124,0C2125,176.4,2125,351.7,2125,527z"/>
	<path class="st1" d="M1,798c2-0.1,4-0.2,6-0.2c703.6,0,1407.2,0,2110.8,0c2.4,0,4.8,0.7,7.2,1.1c0,285,0,569.9,0,854.9
		c-708,0-1416,0-2124,0C1,1368.6,1,1083.3,1,798z M331.9,1652.8c0-3.2,0.2-5.9,0-8.5c-0.3-3.6,1.3-4.9,4.7-4.5c1.2,0.1,2.3,0,3.5,0
		c482,0,964,0,1445.9,0c1,0,2,0.1,3,0c3.8-0.5,5.6,1,5.2,5c-0.2,2.6,0,5.2,0,8c2.8,0,4.8,0,6.7,0c48.2,0,96.3,0.1,144.5-0.1
		c8.2,0,16.5-0.7,24.6-2c25.3-4.2,45.7-17.2,61.4-37.1c15-19,21.2-41.3,21.4-65.2c0.2-38.3,0.1-76.7,0.1-115c0-1.9,0-3.9,0-6.3
		c-3.6,0-6.5,0-9.5,0c-7.5,0-7.5,0-7.5-7.7c0-199.7,0-399.3,0-599c0-2.3,0-4.6,0-7.1c-649.1,0-1297.6,0-1946.6,0c0,2.5,0,4.8,0,7.1
		c0,199.3,0,398.6,0,598c0,1.5-0.1,3,0,4.5c0.2,3-1.1,4.3-4.1,4.2c-3.9-0.1-7.8,0-11.8,0c-0.1,1.7-0.2,2.5-0.2,3.3
		c0,41.8-0.1,83.7,0.1,125.5c0,6,1.1,12.1,2.5,18c5.6,22.5,16.7,41.6,35.1,56.3c17.7,14.1,37.8,22.2,60.3,22.5
		c51.8,0.6,103.7,0.2,155.5,0.2C328.1,1652.8,329.6,1652.8,331.9,1652.8z"/>
	<path class="st1" d="M1460.1,323c-8.1,0-15.6,0.5-23.1-0.1c-8.7-0.8-18.9,6.6-20,18.3c0,0.5,0,1,0,1.5
		c-0.3,13.4-0.3,13.4-13.9,13.4c-228.1,0-456.3,0-684.4,0c-7.7,0-7.5,0-7.8-7.6c-0.3-5.3-0.5-10.9-2.3-15.9
		c-2.4-6.7-8.6-9.3-15.4-9.6c-9-0.3-18-0.1-27-0.2c-0.3,0-0.6-0.3-1.2-0.5c-0.1-1.5-0.2-3.1-0.2-4.7c0-44.7-0.6-89.3,0.2-134
		c0.6-28.9,12.9-52.8,35.6-71.3c14.1-11.5,30.2-17.6,47.8-20.4c1.3-0.2,2.7-0.1,4-0.1c207,0,414-0.1,620.9,0.2
		c18.7,0,35.5,7.7,50.3,19c16.8,12.9,28.2,29.8,33.6,50.4c1.5,5.7,2.8,11.6,2.8,17.4c0.2,45.8,0.1,91.7,0.1,137.5
		C1460.1,318.3,1460.1,320.3,1460.1,323z"/>
	<path class="st1" d="M843,520.3c0,19.6,0,39.1,0,60.1c4.5-5.5,8.2-9.7,11.7-14.1c3.5-4.3,6.8-8.8,10.5-13.1c1.1-1.2,3-2.2,4.6-2.3
		c6.8-0.2,13.6-0.1,21.5-0.1c-5,5.9-9.5,11.2-14,16.5c-3.3,3.9-6.3,8-9.9,11.7c-2.1,2.2-1.6,3.5-0.1,5.7c8.6,13.1,17,26.4,25.9,40.3
		c-7.9,0-15,0.1-22.1-0.1c-1.2,0-2.7-1.2-3.3-2.2c-5.2-8.6-10.2-17.2-15.2-25.8c-10.8,6.4-10.3,16.9-9.2,27.8c-7.3,0-14,0-21.2,0
		c0-34.6,0-69.4,0-104.5C828.8,520.3,835.6,520.3,843,520.3z"/>
	<path class="st1" d="M1039.1,624.9c-7.6,0-14.7,0-22,0c0-24.7,0-49.1,0-73.7c5.9,0,11.5,0,17.5,0c0.6,2.7,1.3,5.5,1.9,8.2
		c4.1-2.5,8.3-5.2,12.7-7.6c13.2-7.3,32.9-1.3,33.7,18.2c0.8,18.1,0.2,36.2,0.2,54.7c-6.3,0-13.4,0-21.1,0c-0.1-1.5-0.2-3.3-0.2-5.1
		c0-13.3,0-26.7,0-40c0-4.1-0.1-8.6-4.5-10.6c-4.9-2.2-9.6-1-13.9,2.2c-3.3,2.4-4.5,5.3-4.4,9.5c0.3,12.8,0.1,25.7,0.1,38.5
		C1039.1,621,1039.1,622.8,1039.1,624.9z"/>
	<path class="st1" d="M642.2,599.3c3.6,4.3,7.5,8.9,11.5,13.7c-12.7,12.6-27,16.8-43.8,12.7c-18.9-4.6-29.8-20.4-32.2-38.9
		c-1.6-12.1-0.7-23.5,4-34.7c5.8-13.8,16.1-22.6,30.5-26c15-3.6,28.2,0.7,39.9,11.4c-3.9,4.8-7.8,9.6-11,13.6
		c-5.4-2.4-10.4-5.8-15.8-6.7c-9.7-1.5-18.5,4.1-22.4,13.5c-5.5,13.2-5.6,26.5,1.4,39.3c5.3,9.6,16.7,13.5,26.8,8.9
		C634.7,604.5,638,601.9,642.2,599.3z"/>
	<path class="st1" d="M1170.8,576.4c-2.3-8.9-7.4-12-15.8-9.6c-5.3,1.5-10.4,3.7-15.9,5.7c-2.3-4.2-4.8-8.8-7.6-13.8
		c14.4-8.3,29.1-12.9,45.1-7.4c9.4,3.3,14.5,11.3,15.4,21c1,11.4,0.9,22.8,1.1,34.3c0.1,6,0,11.9,0,18.2c-6.2,0-11.9,0-17.9,0
		c-0.6-2.2-1.2-4.5-1.6-5.9c-5.9,2.4-11.6,5.8-17.8,7.2c-18.3,4.3-29.3-11.5-26.5-26.1c2.5-12.7,12.4-17.3,23.4-20.1
		C1158.6,578.4,1164.6,577.6,1170.8,576.4z M1170.9,589.8c-5.9,2-11.2,3.2-15.9,5.5c-5.7,2.8-6.4,9.5-1.9,12.9
		c3.8,2.8,8,2.1,11.6,0.2c3.3-1.7,7.1-3.7,6.3-8.9C1170.5,596.8,1170.9,593.9,1170.9,589.8z"/>
	<path class="st1" d="M929.8,593.5c0.1-19.2,4.6-30.9,16-38.5c22.5-14.9,52.3-1.2,55.6,24.9c1.2,9.3,0.6,18-3,26.5
		c-6.9,16.1-25.6,23.9-42.8,19.1C939.4,621,929.6,605.4,929.8,593.5z M980.5,588c-0.9-4.5-1.6-8.9-2.8-13.1c-1.5-5-6.5-8.7-11.3-8.8
		c-5.3-0.1-9.2,2.5-11.3,7.1c-4.4,9.8-4.3,19.8,0,29.5c2.1,4.7,6.2,7.2,11.4,7c5.4-0.3,9.2-3.5,10.9-8.4
		C979,597.1,979.5,592.5,980.5,588z"/>
	<path class="st1" d="M1375.8,588.1c0.2-14.2,4.8-26.4,17.4-34c22.4-13.6,50.8,0.4,54.1,25.4c1.3,9.3,0.7,18.1-2.8,26.5
		c-6.6,16.1-25.6,24.3-42.7,19.5C1385.6,621,1375.8,606,1375.8,588.1z M1426.5,588.1c-1-4.5-1.5-9.1-2.9-13.4c-1.7-5-5.5-8-10.9-8.5
		c-4.7-0.4-9.4,2.4-11.6,7.4c-4.2,9.6-4.2,19.4,0.1,29.1c2.1,4.7,6,7.3,11.2,7.2c4.8,0,9.8-3.6,11.3-8.7
		C1424.9,597,1425.5,592.6,1426.5,588.1z"/>
	<path class="st1" d="M1292.8,587.9c0.3-13.7,4.7-25.5,16.8-33.3c22.2-14.2,51.6-0.4,54.8,25.2c1.2,9.3,0.6,18-3,26.5
		c-6.8,16.1-25.6,24-42.8,19.2C1302.5,621,1292.6,605.5,1292.8,587.9z M1343.5,588c-1-4.5-1.6-9-3-13.4c-1.6-5-6.6-8.4-11.4-8.5
		c-4.8-0.1-9.8,3.3-11.6,8.3c-3.3,8.9-3.3,18-0.1,27c1.8,5,6.7,8.4,11.5,8.5c5,0.1,10.2-3.5,11.8-8.7
		C1341.9,596.9,1342.6,592.5,1343.5,588z"/>
	<path class="st1" d="M1283.7,608.3c1,4.7,2.1,9.1,2.8,13.7c0.2,0.9-0.6,2.8-1.3,3c-10.3,2.5-20.7,4.1-30.3-2.3
		c-7.8-5.2-9.6-13.4-10-21.8c-0.4-10.3-0.1-20.6-0.2-31c0-0.3-0.2-0.6-0.4-1.4c-2.9-0.1-5.9-0.3-9.2-0.5c0-5.4,0-10.4,0-15.8
		c1.3-0.1,2.5-0.1,3.6-0.3c8-1.2,8.3-1.6,8.3-8c0-4.2,1.2-8.4,1.9-12.7c6.1,0,11.9,0,18.1,0c0,6.5,0,12.7,0,19.6
		c6.1,0,11.9,0,17.9,0c0,6,0,11.4,0,17.3c-5.7,0-11.3,0-17.7,0c0,7.3,0,14.3,0,21.2c0,3.8-0.2,7.7,0.1,11.5
		c0.4,6.9,5.8,10.6,12.4,8.9C1281,609.2,1282.3,608.7,1283.7,608.3z"/>
	<path class="st1" d="M799.9,603.9c3,4.9,6,9.8,9,14.6c-17,12.8-39.7,10.4-50.9-2c-12.3-13.5-14.3-38.5-1.4-54.6
		c8.8-10.9,31.4-19.9,51.4-5.4c-3.5,4.7-6.9,9.5-10.4,14.3c-4.7-4.2-10.1-6.2-16.2-3.6c-7.4,3.1-10,9.8-11,16.9
		c-0.9,6.1,0.1,12.2,3.3,17.7C778,609.5,787.8,614,799.9,603.9z"/>
	<path class="st1" d="M1491.6,609.9c0.9,4.4,1.9,8.1,2.3,11.8c0.1,1.4-1,3.9-2,4.2c-8.4,2.5-18.1,2.4-24.2-5.9
		c-2.7-3.7-4.5-9-4.6-13.6c-0.4-28.3-0.2-56.6-0.1-85c0-0.3,0.2-0.6,0.4-1.3c6.9,0,14,0,21.8,0c0,2,0,3.9,0,5.8c0,25.5,0,51,0,76.5
		C1485.1,606.9,1485.6,610.8,1491.6,609.9z"/>
	<path class="st1" d="M695.6,610c0.9,4.3,1.9,8,2.3,11.7c0.1,1.4-0.9,3.9-2,4.3c-8.4,2.5-18.1,2.4-24.2-5.9c-2.7-3.7-4.5-9-4.6-13.6
		c-0.4-28.3-0.2-56.6-0.1-85c0-0.3,0.2-0.6,0.4-1.3c6.9,0,14,0,21.8,0c0,1.9,0,3.9,0,5.8c0,25.5,0,51,0,76.5
		C689.1,607,689.8,610.6,695.6,610z"/>
	<path class="st1" d="M731.8,625c-7.3,0-14.3,0-21.6,0c0-24.6,0-49,0-73.7c7.1,0,14.1,0,21.6,0C731.8,575.6,731.8,600,731.8,625z"/>
	<path class="st1" d="M1510.4,525.1c7.7,0,14.3,0,22.2,0c-1.4,21.7-2.7,43.2-4.1,64.9c-5.4,0-9.7,0-15,0
		C1512.5,568.5,1511.5,547.1,1510.4,525.1z"/>
	<path class="st1" d="M1521.3,627.1c-7-0.1-13.8-7-13.3-14.3c0.5-8.8,6.7-13.7,13.8-13.9c7.1-0.2,13.6,7.1,13.4,14.3
		C1534.9,620.7,1528.4,627.2,1521.3,627.1z"/>
	<path class="st1" d="M733.1,528.7c-0.1,6.5-5.6,11.5-12.7,11.5c-7.1,0-12.6-5.3-12.6-12.1c0-6.2,5.9-11.3,13-11.2
		C727.9,517,733.2,522.1,733.1,528.7z"/>
	<path class="st0" d="M331.9,1652.8c-2.3,0-3.8,0-5.2,0c-51.8,0-103.7,0.4-155.5-0.2c-22.4-0.2-42.6-8.3-60.3-22.5
		c-18.4-14.7-29.5-33.7-35.1-56.3c-1.4-5.9-2.5-12-2.5-18c-0.2-41.8-0.1-83.7-0.1-125.5c0-0.8,0.1-1.7,0.2-3.3c3.9,0,7.8-0.1,11.8,0
		c3,0.1,4.3-1.2,4.1-4.2c-0.1-1.5,0-3,0-4.5c0-199.3,0-398.6,0-598c0-2.3,0-4.6,0-7.1c649,0,1297.6,0,1946.6,0c0,2.5,0,4.8,0,7.1
		c0,199.7,0,399.3,0,599c0,7.6,0,7.6,7.5,7.7c3,0,5.9,0,9.5,0c0,2.4,0,4.3,0,6.3c0,38.3,0.2,76.7-0.1,115
		c-0.1,23.9-6.3,46.2-21.4,65.2c-15.8,19.9-36.1,32.9-61.4,37.1c-8.1,1.4-16.4,2-24.6,2c-48.2,0.2-96.3,0.1-144.5,0.1
		c-2,0-4,0-6.7,0c0-2.8-0.2-5.4,0-8c0.4-4.1-1.4-5.5-5.2-5c-1,0.1-2,0-3,0c-482,0-964,0-1445.9,0c-1.2,0-2.3,0.1-3.5,0
		c-3.4-0.3-5,1-4.7,4.5C332,1647,331.9,1649.6,331.9,1652.8z M280.1,949.1c2.7,0,4.7,0,6.7,0c40.8,0,81.7,0,122.5,0
		c12.3,0,20.8-8.4,20.8-20.7c0-18.2,0.1-36.3,0-54.5c-0.1-11.8-8.5-20.1-20.4-20.1c-50.8,0-101.7,0-152.5,0.1
		c-4.2,0-8.5,0.8-12.7,1.7c-16,3.2-29.2,11.3-40.3,23.3c-12.2,13.3-19.3,29-19.3,46.7c-0.3,145-0.2,290-0.2,435
		c0,11,8.7,19.6,19.8,19.7c17.7,0,35.3-0.5,53,0.2c12.7,0.4,22.6-8,22.6-22.6c-0.2-133.8-0.1-267.6-0.1-401.5
		C280.1,954.1,280.1,951.9,280.1,949.1z M546.3,1104.8c6.9-1.8,13.7-2.6,19.7-5.3c14.4-6.4,29.2-6.2,44.2-4.1
		c12.5,1.8,24.8,4.6,37.2,6.7c7.6,1.3,13.6-4.1,13.8-11.7c0.4-10-9.1-17.7-19.1-19.4c-14.7-2.4-29.5-4.5-44.4-6
		c-16.7-1.7-33.5-3.4-50.3-3.9c-17.6-0.5-35.2,0.3-52.8,0.9c-9.7,0.3-19.5,0.9-29.1,2.1c-13.8,1.6-27.6,3.9-41.4,5.9
		c-8.3,1.2-16.2,3.1-21.8,10.1c-3.9,4.9-4.5,10.5-2.3,16.2c1.3,3.4,7.8,6.6,12.3,5.8c12.3-2,24.5-4.8,36.8-6.3
		c9.4-1.1,19.1-1.7,28.5-0.5c9.3,1.2,18.2,4.9,27.4,7.3c2.9,0.8,5.9,1.3,8.5,1.9c0,62.4,0,124.2,0,186.4c-5.6,0-10.9,0-16.7,0
		c0,2.6,0,4.7,0,6.8c0,79,0,158,0.1,237c0,4.8-0.7,7.5-6.3,7.3c-3.2-0.1-6.4,1.1-9.6,1.8c-16.7,3.8-32.8,9.4-47.1,19.1
		c-1.9,1.3-4.7,3.2-4.8,5c-0.5,9.6-0.2,19.2-0.2,29c67.7,0,134.7,0,202.3,0c0-8.1-0.3-15.9,0.1-23.7c0.3-5.1-1.3-8.3-5.8-10.6
		c-7.4-3.8-14.6-8-20.8-11.4c0.9-31.2,0.3-61.9,0.4-92.6c0.1-30.8,0-61.7,0-92.5c0-30.8,0-61.6,0-93c3.6,0,6.6,0,10.1,0
		c0-11.2,0-21.8,0-33c8.2,0,15.9,0,23.5,0c0-12.7,0-24.8,0-36.8c-26.8,0-53.2,0-79.5,0c0,12.5,0,24.5,0,37c8,0,15.6,0,23.8,0
		c0,11.2,0,21.9,0,33c3.6,0,6.5,0,9.5,0c0.1,1.1,0.3,1.7,0.3,2.3c0,88.7,0,177.3,0,266c0,1.8-0.9,3.5-1.3,5.1
		c-8-1.7-15.1-3.9-22.3-4.7c-5.1-0.5-6.1-2.4-6.1-7c0.1-79.2,0.1-158.3,0.1-237.5c0-2.1,0-4.2,0-6.9c-6.1,0-11.4,0-16.9,0
		C546.3,1228.3,546.3,1166.7,546.3,1104.8z M1076.2,1341.1c6.4,4.1,13.4,8.4,20.3,12.9c18.1,11.9,38.4,18.5,59.2,23.5
		c8,1.9,16,0,20.9-7.9c1.9-3,3.2-6.1,1.1-9.7c-4.9-8.2-9.8-16.4-14.6-24.7c-5.3-9.1-10.5-18.3-15.6-27.5c-3.4-6.2-1.7-11.1,4-11.3
		c8.2-0.3,16.4-0.4,24.7-0.1c1.7,0.1,3.9,1.5,4.8,3c8.2,13.5,16.1,27.3,24.2,40.9c5.6,9.5,5.6,9.5,15.7,4.9
		c6.2-2.8,11.7-6.2,13-13.7c2.8-15.9,4-31.9,2.3-47.9c-1.1-10.6-3.4-21.3-6.1-31.6c-2.8-10.7-8.5-20.1-16.5-27.8
		c-11.1-10.6-24.7-16.4-39.8-18.7c-13.7-2.1-27.4-3.8-41.1-5.5c-25-3.2-49.2-9.6-72-20.5c-14.2-6.8-26.5-16.6-38.5-26.9
		c-17.5-15-35.6-29.3-53.4-44c-19.9-16.5-39.8-33.1-59.7-49.6c-15.3-12.7-30.7-25.4-46-38.1c-10.7-8.9-21.5-17.7-32.2-26.6
		c-20.7-17.1-41.3-34.3-62-51.4c-13.5-11.1-27-22.1-40.6-32.9c-10.9-8.7-22.9-12.7-37.4-11.3c-18.4,1.8-35.7,17.7-40.8,34.3
		c-6.8,22.3,2.8,40.2,20.1,53.2c8.5,6.4,17.4,12.1,26,18.3c14.1,10.2,28.1,20.6,42.2,30.8c18.8,13.6,37.7,27.2,56.5,40.8
		c17,12.2,33.9,24.4,50.9,36.6c13.4,9.7,26.9,19.5,40.3,29.3c17.1,12.6,34.3,25.1,51.3,37.8c10.8,8.1,21.5,16.3,32.1,24.6
		c9.5,7.5,19.1,14.9,28.1,23.1c9.9,9,16.6,20.3,21.3,32.9c7.1,19.1,14.6,38,21.9,57c3.1,8,5.9,16,9.1,23.9c2.1,5.3,6,7.6,11.3,6.1
		C1066.1,1345.9,1070.6,1343.5,1076.2,1341.1z M1046.9,1017.7c16.2-0.7,31.6-1.3,47.1-1.9c13.9-0.6,27.9-1.1,41.8-1.6
		c9.9-0.4,19.9-0.8,29.8-1.2c14.4-0.6,28.9-1.2,43.3-1.7c8.9-0.4,17.9-0.8,26.8-1.1c24.2-1,48.4-2,72.6-2.9
		c11.6-0.5,23.2-0.8,34.8-1.2c11.8-0.5,23.5-1.2,35.3-1.6c16.4-0.6,32.9-0.9,49.3-1.4c16.8-0.5,33.5-1.2,50.3-1.8
		c0.7,0,1.3-0.1,2-0.1c8.4-0.3,16.9-0.5,25.3-1c2.6-0.1,5.6-0.3,7.5-1.7c9.7-7.5,19.2-15.2,28.5-23.2c4.6-3.9,9.1-6.2,15.5-6.1
		c20.8,0.3,41.7-0.2,62.5-0.4c5.8-0.1,7.3-1.8,7.2-7.6c-0.2-20.7-0.4-41.3-0.6-62c-0.1-7.8-1.3-9-8.9-8.9
		c-21.8,0.3-43.7,0.6-65.5,0.7c-1.9,0-4.2-0.2-5.6-1.2c-7.3-5.4-14.5-11-21.5-16.9c-8.8-7.5-17.5-14.1-30.4-11.3
		c-5.3,1.2-11.2-0.5-16.8-0.6c-12.3-0.3-24.6-0.5-36.9-0.7c-11.6-0.2-23.2-0.2-34.8-0.4c-11.6-0.2-23.2-0.6-34.8-0.8
		c-12.3-0.2-24.6-0.2-36.9-0.4c-11.3-0.2-22.6-0.5-33.8-0.7c-12.1-0.2-24.2-0.5-36.4-0.7c-11.6-0.2-23.2-0.2-34.8-0.4
		c-11.8-0.2-23.6-0.6-35.3-0.8c-12.6-0.2-25.2-0.2-37.9-0.4c-10.8-0.2-21.6-0.5-32.3-0.7c-13.1-0.2-26.2-0.5-39.4-0.6
		c-11.2,0-22.3,0.3-33.5,0.5c-1.8,0-3.5,0.2-5.6,0.3C1045.5,909.3,1046.2,962.9,1046.9,1017.7z M755.1,1541.7
		c164.2,0,327.9,0,491.4,0c0-13.5,0-26.5,0-40c-123.4,0-246.2,0-369.7,0c0-22.1,0-43.7,0-65.8c-2.7,0-4.9,0.4-6.9-0.1
		c-5.1-1.2-11.6,3.4-15.2-3.7c-0.1-0.3-0.9-0.2-1.4-0.2c-8.3,0-16.7,0-25,0c-0.9,0-2,0.4-2.6,1c-3.6,4.2-6.2,4.1-10.1-0.1
		c-0.6-0.7-2.1-0.9-3.2-0.9c-7.8-0.1-15.7-0.1-23.5,0c-1.1,0-3.1,0.7-3.2,1.3c-0.6,3.3-2.9,2.6-5,2.6c-5.3,0-10.5,0-16.6,0
		c0,22.4,0,44,0,65.8c-3.5,0.2-6.2,0.3-9.1,0.4C755.1,1515.6,755.1,1528.5,755.1,1541.7z M1540.6,1509.3c6.9-0.2,13.1-2.2,18.2-7.3
		c102.7-102.8,205.5-205.5,308.3-308.2c9.5-9.5,9.3-26.2-0.1-35.6c-27.7-27.7-55.8-55-82.9-83.2c-11.6-12.1-30.7-11.1-41.8,0
		c-77.2,77.4-154.5,154.7-231.8,231.9c-23.7,23.7-47.3,47.5-71.1,71c-11.8,11.7-12.4,29.3-0.3,41.1c27.8,27.1,55.1,54.7,82.4,82.3
		C1526.8,1506.6,1533.1,1509,1540.6,1509.3z M1873.1,1392.3c0-6.8-2.1-12.1-8-17.9c-12-11.7-24.1-23.3-36.1-35.1
		c-12.3-12.2-24.5-24.5-36.8-36.7c-1.8-1.8-3.3-3.8-5.4-5.2c-2.9-1.9-6-2.7-9.1,0.1c-3.3,3-2.3,6.3-0.5,9.4c0.7,1.3,2,2.2,3.1,3.2
		c24.4,24.4,48.6,48.9,73.3,73c8,7.8,7.3,15.2,0,22.5c-15.4,15.2-30.9,30.2-46.3,45.4c-11.9,11.7-23.8,23.3-35.3,35.4
		c-6.8,7.2-14.5,6.6-20.9,0.1c-25.6-25.8-51.3-51.4-77-77.1c-4-4-8.3-4.7-11.3-1.8c-3,2.9-2.5,7.4,1.4,11.3
		c26.4,26.4,52.7,52.8,79.2,79.1c9.8,9.8,26.8,9.5,36.5-0.2c28.6-28.6,57.2-57.3,85.9-85.8
		C1870.9,1406.9,1873.4,1400.9,1873.1,1392.3z M1427.8,1172.2c-0.6,6.9,2.4,12.9,7.7,18.2c16.2,16,32.3,32.2,48.5,48.4
		c9.4,9.4,18.8,18.9,28.3,28.2c4.5,4.5,10,3.6,12.3-1.8c1.6-3.7-0.6-6-2.9-8.2c-13.7-13.4-27.4-26.7-41-40.1
		c-11.5-11.3-22.9-22.8-34.3-34.3c-7.3-7.3-7.2-14.1,0.1-21.4c26.9-26.9,53.9-53.6,80.5-80.7c8.6-8.7,16.5-7.6,24.1,0.1
		c24.7,25,49.7,49.8,74.5,74.6c0.9,0.9,1.8,2.5,2.8,2.7c2.7,0.4,6,0.9,8.2-0.2c2.7-1.4,3.6-4.7,1.5-7.7c-1.7-2.4-3.4-4.9-5.4-7
		c-24.6-24.7-49.4-49.1-73.7-74c-11.1-11.4-31-10.7-40.8,0c-7.3,8-14.8,15.7-22.4,23.4c-20,20.1-40,40.1-60.1,60.1
		C1430.5,1157.8,1427.5,1163.9,1427.8,1172.2z M1444.7,1335.8c1.7,2.2,3.1,5.6,4.8,5.8c2.9,0.3,6.8-0.5,8.8-2.4
		c17.4-16.9,34.5-34.2,51.7-51.4c4-4,4.2-7.4,0.7-10.7c-3.3-3.1-6.4-2.9-10.3,0.9c-17.5,17.4-34.9,34.8-52.3,52.3
		C1446.9,1331.5,1446.2,1333.3,1444.7,1335.8z M1799.1,1295.1c0.7-0.5,2.8-1.5,4.3-2.9c17-16.9,34-33.9,50.9-50.8
		c0.9-0.9,2.3-1.8,2.6-3c0.5-2.1,1-4.7,0.1-6.3c-0.9-1.6-3.6-3.1-5.4-3c-2.5,0.2-5.5,1.4-7.3,3.2c-16.9,16.6-33.5,33.3-50.2,50.1
		c-1,1-2,2.3-2.6,3.6C1789.2,1291.1,1792,1295.2,1799.1,1295.1z M1462.7,1301.3c2.7-1.5,4.7-2.2,6.1-3.6
		c8.7-8.5,17.3-17.1,25.8-25.8c3-3,3.3-7.6,0.7-10.2c-2.6-2.6-6.4-2.5-9.6,0.7c-9.1,9-18.3,18-27.1,27.3c-1.3,1.3-1.6,4.6-0.9,6.5
		C1458.4,1298.2,1460.8,1299.5,1462.7,1301.3z M1812.8,1311.1c2.4-1.1,4.1-1.4,5.2-2.5c9-8.9,18-17.8,26.9-26.8
		c3.2-3.3,3.2-7-0.1-9.5c-3-2.3-6.3-2.5-9.3,0.6c-8.8,8.9-17.8,17.5-26.4,26.6c-1.5,1.6-2.4,5-1.7,7
		C1808,1308.3,1810.9,1309.5,1812.8,1311.1z M1779.1,1430.8c-0.1-6.6-5.7-12.1-12.3-11.9c-6.2,0.1-12.1,5.9-11.9,12.1
		c0.2,7.2,4.4,12.4,12.4,12.2C1774.5,1443,1779.2,1438.1,1779.1,1430.8z M1551.1,1202.9c0-7.1-5.1-12-12.2-12
		c-6.4,0-12.3,6-12.1,12.4c0.2,6.7,5.6,12,12.4,11.9C1546.4,1215.1,1551.2,1210.2,1551.1,1202.9z M1747.1,1399.4
		c0.2-9-5.7-11.9-12.2-12.5c-5.9-0.5-12.5,6.2-12,12c0.6,6.5,3.6,12.3,12.5,12.1C1742.8,1411.1,1747.2,1406.8,1747.1,1399.4z
		 M1809.1,1401.1c0.4-7.4-5.2-12-11.4-12.1c-7.8-0.1-12.8,5.7-12.8,12.2c-0.1,6.9,5.2,12,12.1,12
		C1804.2,1413.1,1809.1,1408.3,1809.1,1401.1z M1569.2,1185.1c7.2,0,12-4.9,12-12.1c0-8-5.3-12-12.4-12.1
		c-6.2-0.1-11.9,6.2-11.9,12.6C1556.9,1179.6,1562.9,1185.2,1569.2,1185.1z M1536.1,1152.1c7.5,0,12-4.5,12.1-11.8
		c0.1-6.4-5.7-12.3-12.4-11.6c-7,0.7-11.8,4.9-11.9,11.7C1523.8,1147.5,1528.7,1152.2,1536.1,1152.1z M1518.1,1170.5
		c0-7.3-4.6-11.7-12.3-11.7c-6.1,0-11.9,5.9-11.9,12.1c0,6.2,6.2,12.5,12.6,12.1C1512.6,1182.7,1518.2,1179.5,1518.1,1170.5z
		 M1777.1,1369.5c0.2-8.8-5.3-11.9-11.5-12.5c-6.9-0.7-11.8,4.7-11.7,12.1c0,7.8,4.1,12,11.6,12
		C1772.8,1381.2,1777.1,1376.8,1777.1,1369.5z"/>
	<path class="st0" d="M1170.9,589.8c0,4.1-0.3,7,0.1,9.7c0.8,5.2-3,7.1-6.3,8.9c-3.6,1.9-7.8,2.6-11.6-0.2
		c-4.5-3.3-3.8-10.1,1.9-12.9C1159.7,593,1165,591.8,1170.9,589.8z"/>
	<path class="st0" d="M980.5,588c-1,4.5-1.5,9.1-3,13.3c-1.7,4.9-5.5,8.1-10.9,8.4c-5.2,0.3-9.3-2.3-11.4-7
		c-4.4-9.8-4.4-19.7,0-29.5c2.1-4.7,6-7.2,11.3-7.1c4.8,0.1,9.7,3.8,11.3,8.8C978.9,579.1,979.6,583.5,980.5,588z"/>
	<path class="st0" d="M1426.5,588.1c-1,4.5-1.6,8.9-2.9,13c-1.6,5-6.5,8.6-11.3,8.7c-5.2,0-9.1-2.5-11.2-7.2
		c-4.2-9.6-4.3-19.4-0.1-29.1c2.2-4.9,6.9-7.8,11.6-7.4c5.4,0.5,9.2,3.5,10.9,8.5C1425,579,1425.5,583.6,1426.5,588.1z"/>
	<path class="st0" d="M1343.5,588c-1,4.5-1.6,8.9-2.8,13.1c-1.6,5.2-6.8,8.8-11.8,8.7c-4.8-0.1-9.7-3.5-11.5-8.5
		c-3.2-9-3.2-18,0.1-27c1.8-4.9,6.8-8.3,11.6-8.3c4.8,0.1,9.9,3.5,11.4,8.5C1341.9,579,1342.5,583.5,1343.5,588z"/>
	<path class="st1" d="M280.1,949.1c0,2.8,0,4.9,0,7.1c0,133.8-0.1,267.6,0.1,401.5c0,14.6-9.9,23.1-22.6,22.6
		c-17.6-0.6-35.3-0.1-53-0.2c-11.1,0-19.8-8.6-19.8-19.7c0-145-0.1-290,0.2-435c0-17.7,7.1-33.4,19.3-46.7
		c11.1-12,24.2-20,40.3-23.3c4.2-0.8,8.4-1.6,12.7-1.7c50.8-0.1,101.7-0.1,152.5-0.1c11.8,0,20.3,8.3,20.4,20.1
		c0.1,18.2,0,36.3,0,54.5c0,12.3-8.5,20.7-20.8,20.7c-40.8,0-81.7,0-122.5,0C284.9,949.1,282.9,949.1,280.1,949.1z M409.7,874.1
		c-2.5,0-4.5,0-6.5,0c-47,0-94-0.2-141,0.2c-7.7,0.1-15.9,1.3-23,4.1c-19.5,7.6-33.9,27-33.9,48.5c-0.2,142.3-0.1,284.6-0.1,426.9
		c0,1.9,0,3.8,0,5.6c6.4,0,11.9,0,17.7,0c0-2.6,0-4.7,0-6.9c0-138.8,0-277.6,0-416.4c0-3.1,0.3-6.3,1-9.3
		c4.7-19.8,23.7-35.2,43.9-35.1c45.3,0.3,90.6,0.1,136,0.1c1.9,0,3.9,0,5.9,0C409.7,885.7,409.7,880.2,409.7,874.1z M409.6,911.1
		c-2.3,0-3.9,0-5.6,0c-44.2,0-88.3,0-132.5,0c-16.8,0-29.4,12.5-29.4,29.2c0,138,0,276,0,414c0,1.7,0,3.5,0,5.1c6.4,0,11.9,0,17.7,0
		c0-2.6,0-4.7,0-6.9c0-134.3,0.1-268.7-0.1-403c0-11.8,9-20.9,20.6-20.8c41.2,0.2,82.3,0.1,123.5,0.1c1.9,0,3.8,0,5.7,0
		C409.6,922.6,409.6,917.1,409.6,911.1z"/>
	<path class="st1" d="M546.3,1104.8c0,61.9,0,123.6,0,185.8c5.4,0,10.8,0,16.9,0c0,2.7,0,4.8,0,6.9c0,79.2,0,158.3-0.1,237.5
		c0,4.6,1,6.5,6.1,7c7.3,0.7,14.4,2.9,22.3,4.7c0.4-1.6,1.3-3.3,1.3-5.1c0.1-88.7,0-177.3,0-266c0-0.6-0.2-1.3-0.3-2.3
		c-3,0-6,0-9.5,0c0-11.1,0-21.9,0-33c-8.2,0-15.8,0-23.8,0c0-12.5,0-24.6,0-37c26.3,0,52.7,0,79.5,0c0,12,0,24.1,0,36.8
		c-7.6,0-15.4,0-23.5,0c0,11.2,0,21.8,0,33c-3.5,0-6.5,0-10.1,0c0,31.4,0,62.2,0,93c0,30.8,0.1,61.7,0,92.5
		c-0.1,30.7,0.5,61.4-0.4,92.6c6.2,3.4,13.4,7.6,20.8,11.4c4.5,2.3,6.1,5.5,5.8,10.6c-0.5,7.8-0.1,15.6-0.1,23.7
		c-67.5,0-134.6,0-202.3,0c0-9.8-0.2-19.4,0.2-29c0.1-1.7,2.9-3.7,4.8-5c14.3-9.7,30.4-15.2,47.1-19.1c3.2-0.7,6.4-2,9.6-1.8
		c5.6,0.2,6.3-2.5,6.3-7.3c-0.1-79-0.1-158-0.1-237c0-2.1,0-4.2,0-6.8c5.8,0,11.1,0,16.7,0c0-62.2,0-124,0-186.4
		c-2.6-0.6-5.6-1.1-8.5-1.9c-9.1-2.5-18.1-6.2-27.4-7.3c-9.3-1.2-19.1-0.6-28.5,0.5c-12.3,1.4-24.5,4.2-36.8,6.3
		c-4.5,0.7-11-2.4-12.3-5.8c-2.2-5.8-1.7-11.3,2.3-16.2c5.5-7,13.5-8.9,21.8-10.1c13.8-2,27.6-4.2,41.4-5.9
		c9.7-1.1,19.4-1.8,29.1-2.1c17.6-0.6,35.2-1.4,52.8-0.9c16.8,0.5,33.6,2.1,50.3,3.9c14.8,1.6,29.6,3.6,44.4,6
		c10,1.6,19.5,9.3,19.1,19.4c-0.3,7.6-6.3,13-13.8,11.7c-12.4-2.1-24.7-4.9-37.2-6.7c-15-2.1-29.8-2.3-44.2,4.1
		C560,1102.2,553.1,1103,546.3,1104.8z M518.9,1551.3c-9.6,1-19,1.5-28.2,2.9c-16.2,2.4-31.4,8.2-45.7,16c-1.5,0.8-3.4,2.5-3.6,4
		c-0.5,3.7-0.2,7.5-0.2,11.2c59.6,0,118.5,0,177.7,0c0-3.3,0.4-6.4-0.1-9.3c-0.3-1.9-1.4-4.5-2.9-5.4c-4.8-2.9-9.8-5.4-15-7.5
		c-1.4-0.6-4.1,0-5.4,1.1c-7.2,6-15,9.9-24.6,9.7c-11.8-0.2-23.7,0-35.5,0c-1.7,0-3.5,0-5.1,0c0-4.2,0-7.6,0-11.3
		c12.9,0,25.4,0.4,37.9-0.2c5.4-0.2,10.8-2.3,16.2-3.6c-0.1-0.9-0.1-1.8-0.2-2.7c-14.3-1.8-28.7-3.7-42.9-5.5c0-3.3,0-7.1,0-11.2
		c3.7,0,6.9,0,10.3,0c0-79.3,0-158.2,0-237.2c-14.6,0-28.8,0-43,0c0,79.2,0,158.1,0,237.5c3.6,0,6.9,0,10.4,0
		C518.9,1544.1,518.9,1547.9,518.9,1551.3z M648.4,1090.1c0.3-0.6,0.5-1.2,0.8-1.8c-2.8-1.7-5.4-4.5-8.3-5
		c-25.8-3.6-51.6-7.6-77.6-9.9c-16.3-1.5-32.8-0.8-49.2-0.1c-18.6,0.7-37.2,2.1-55.7,4c-13.3,1.3-26.6,3.7-39.8,6.1
		c-2.8,0.5-5.3,3.3-7.9,5c0.3,0.5,0.6,1,0.9,1.5c1.2,0,2.3,0.2,3.5,0c12.1-2.2,24-5.1,36.2-6.4c10.2-1,20.7-0.9,30.9,0.2
		c7,0.8,13.6,4.4,20.6,6.1c11.6,2.8,23.4,5.3,35.5,3.1c7.7-1.4,15.8-1.7,23.1-4.4c12.5-4.7,25.1-7.4,38.4-5.6c11,1.5,22,3.2,33,4.8
		C638,1088.5,643.2,1089.3,648.4,1090.1z M534.4,1290.6c0-61.9,0-123.6,0-185.2c-3.2,0-6,0-8.9,0c0,61.9,0,123.6,0,185.2
		C528.8,1290.6,531.6,1290.6,534.4,1290.6z M570.6,1214.4c0,5.2,0,9.7,0,14.1c19.3,0,38.2,0,56.9,0c0-5,0-9.5,0-14.1
		C608.3,1214.4,589.5,1214.4,570.6,1214.4z M595.5,1240.3c0,8.4,0,16.3,0,24.2c2.9,0,5.5,0,8,0c0-8.2,0-16.1,0-24.2
		C600.7,1240.3,598.3,1240.3,595.5,1240.3z"/>
	<path class="st1" d="M1076.2,1341.1c-5.6,2.3-10.2,4.8-15,6.1c-5.3,1.5-9.2-0.8-11.3-6.1c-3.2-7.9-6-16-9.1-23.9
		c-7.3-19-14.8-37.9-21.9-57c-4.7-12.6-11.4-23.9-21.3-32.9c-9-8.1-18.6-15.6-28.1-23.1c-10.6-8.4-21.3-16.6-32.1-24.6
		c-17-12.7-34.2-25.3-51.3-37.8c-13.4-9.8-26.8-19.6-40.3-29.3c-16.9-12.2-33.9-24.4-50.9-36.6c-18.9-13.6-37.7-27.2-56.5-40.8
		c-14.1-10.2-28.1-20.6-42.2-30.8c-8.6-6.2-17.6-11.9-26-18.3c-17.3-13-26.9-30.9-20.1-53.2c5-16.6,22.4-32.5,40.8-34.3
		c14.5-1.4,26.5,2.6,37.4,11.3c13.6,10.8,27.2,21.8,40.6,32.9c20.7,17.1,41.4,34.3,62,51.4c10.7,8.9,21.4,17.8,32.2,26.6
		c15.3,12.7,30.7,25.3,46,38.1c19.9,16.5,39.7,33.1,59.7,49.6c17.8,14.7,35.9,29,53.4,44c12,10.3,24.3,20.1,38.5,26.9
		c22.8,10.9,47,17.3,72,20.5c13.7,1.8,27.4,3.4,41.1,5.5c15,2.3,28.7,8.1,39.8,18.7c8,7.7,13.8,17.1,16.5,27.8
		c2.7,10.4,5,21,6.1,31.6c1.7,16,0.5,32.1-2.3,47.9c-1.3,7.5-6.9,10.9-13,13.7c-10.1,4.5-10.1,4.6-15.7-4.9
		c-8.1-13.6-16-27.3-24.2-40.9c-0.9-1.5-3.1-2.9-4.8-3c-8.2-0.2-16.4-0.2-24.7,0.1c-5.7,0.2-7.5,5.1-4,11.3
		c5.1,9.2,10.4,18.4,15.6,27.5c4.8,8.3,9.7,16.5,14.6,24.7c2.1,3.5,0.8,6.6-1.1,9.7c-4.9,8-12.9,9.8-20.9,7.9
		c-20.8-5-41.1-11.6-59.2-23.5C1089.6,1349.5,1082.6,1345.2,1076.2,1341.1z M1217.1,1333c1.8-2.7,4-4.6,4.2-6.7
		c1-13,2.6-26.1,1.9-39c-0.6-11.4-3.1-22.9-6.5-33.9c-3.5-11.5-11.3-20.3-21.8-26.6c-10.4-6.3-22-8.5-33.5-9.9
		c-24.9-3-49.8-5.6-73.9-12.9c-18-5.5-36.1-11.3-51.5-22.8c-17.2-12.8-33.9-26.3-50.5-39.9c-15.1-12.4-29.8-25.3-44.8-37.9
		c-10.7-9-21.5-17.7-32.3-26.6c-15.2-12.6-30.3-25.3-45.5-37.9c-10.9-9-21.8-17.9-32.6-26.9c-15.2-12.6-30.3-25.3-45.6-37.9
		c-17.3-14.3-34.5-28.7-52-42.7c-8-6.3-16.4-12.2-25.2-17.3c-4.9-2.8-11-3.5-17-2.1c-10.6,2.4-17.5,9.3-23.3,17.9
		c-10.5,15.7-7.5,29.1,5.7,40.3c10.5,9,22.4,16.4,33.7,24.5c19.7,14,39.5,28,59.2,42c14.7,10.5,29.4,21,44.1,31.5
		c18.3,13.2,36.7,26.3,55,39.5c13.5,9.7,26.9,19.4,40.3,29.3c19.5,14.4,39.1,28.7,58.4,43.3c11.4,8.6,22.3,17.9,33.6,26.7
		c15.2,11.8,27.3,25.7,33.9,44.1c6.8,18.8,13.9,37.5,20.9,56.3c3.1,8.3,6.1,16.7,9.3,25.5c5-3.3,9.6-6,13.9-9
		c13.8-9.7,27.2-19.9,41.3-29.1c8.8-5.8,18.6-10.1,29.4-11c9-0.7,18.1-1.5,27.1-1.5c8,0,15.5,0.5,20.1,9.9
		C1199.9,1305.8,1208.5,1318.6,1217.1,1333z M1130.8,1301.9c-13.4,9.1-27.9,18.9-42.1,28.5c22.6,18.3,47.9,27.6,75.6,34
		c-8-14.2-15.6-27.5-22.9-40.9C1137.8,1316.9,1134.7,1309.9,1130.8,1301.9z"/>
	<path class="st1" d="M1046.9,1017.7c-0.7-54.8-1.3-108.4-2-162.6c2.1-0.1,3.8-0.3,5.6-0.3c11.2-0.2,22.3-0.5,33.5-0.5
		c13.1,0,26.2,0.3,39.4,0.6c10.8,0.2,21.6,0.6,32.3,0.7c12.6,0.2,25.2,0.2,37.9,0.4c11.8,0.2,23.6,0.6,35.3,0.8
		c11.6,0.2,23.2,0.2,34.8,0.4c12.1,0.2,24.2,0.4,36.4,0.7c11.3,0.2,22.6,0.5,33.8,0.7c12.3,0.2,24.6,0.2,36.9,0.4
		c11.6,0.2,23.2,0.6,34.8,0.8c11.6,0.2,23.2,0.2,34.8,0.4c12.3,0.2,24.6,0.4,36.9,0.7c5.6,0.1,11.5,1.8,16.8,0.6
		c12.9-2.9,21.6,3.8,30.4,11.3c6.9,5.9,14.2,11.4,21.5,16.9c1.4,1,3.7,1.2,5.6,1.2c21.8-0.2,43.7-0.5,65.5-0.7
		c7.7-0.1,8.9,1.1,8.9,8.9c0.2,20.7,0.4,41.3,0.6,62c0.1,5.8-1.4,7.5-7.2,7.6c-20.8,0.3-41.7,0.7-62.5,0.4
		c-6.4-0.1-10.9,2.2-15.5,6.1c-9.3,8-18.8,15.7-28.5,23.2c-1.9,1.4-4.9,1.6-7.5,1.7c-8.4,0.5-16.9,0.7-25.3,1c-0.7,0-1.3,0.1-2,0.1
		c-16.8,0.6-33.5,1.2-50.3,1.8c-16.4,0.5-32.9,0.8-49.3,1.4c-11.8,0.4-23.5,1.1-35.3,1.6c-11.6,0.5-23.2,0.8-34.8,1.2
		c-24.2,1-48.4,2-72.6,2.9c-8.9,0.4-17.9,0.8-26.8,1.1c-14.4,0.6-28.9,1.2-43.3,1.7c-9.9,0.4-19.9,0.8-29.8,1.2
		c-13.9,0.5-27.9,1.1-41.8,1.6C1078.5,1016.4,1063.1,1017,1046.9,1017.7z M1089.1,1003c2.7-0.3,4.8-0.7,6.9-0.8
		c11.4-0.5,22.9-0.8,34.3-1.3c11.9-0.4,23.9-0.9,35.8-1.4c11.8-0.5,23.5-1.1,35.3-1.5c11.8-0.5,23.5-0.8,35.3-1.2
		c11.8-0.5,23.5-1.1,35.3-1.6c11.9-0.5,23.9-0.8,35.8-1.3c11.8-0.4,23.5-1,35.3-1.5c14.1-0.5,28.2-1,42.3-1.5
		c8.9-0.3,17.9-0.8,26.8-1.1c15.1-0.6,30.2-1.2,45.3-1.7c13.8-0.5,27.5-0.9,41.3-1.3c0.6,0,1.3-0.2,1.5-0.3c0-37.1,0-74,0-110.8
		c-8.8-0.5-16.5-1.2-24.2-1.4c-23.6-0.5-47.2-0.7-70.7-1.1c-12-0.2-23.9-0.5-35.9-0.7c-23.6-0.4-47.1-0.8-70.7-1.2
		c-23.4-0.4-46.8-0.7-70.2-1.1c-12.1-0.2-24.2-0.5-36.4-0.7c-11.6-0.2-23.2-0.2-34.9-0.4c-11.9-0.2-23.9-0.6-35.8-0.8
		c-11.3-0.1-22.5,0-34.2,0C1088,913.2,1088.6,958,1089.1,1003z M1612.4,956.3c0-18.3,0-35.7,0-53c-18,0-35.4,0-52.9,0
		c0,18,0,35.5,0,53C1577.5,956.3,1594.8,956.3,1612.4,956.3z M1514.5,977.9c0.5,0.2,1,0.4,1.5,0.5c8.5-7.1,16.8-14.4,25.7-21
		c3.6-2.7,4.5-5.6,4.3-9.6c-0.3-8.7-0.7-17.4,0-26c0.8-10.2-1.2-18-10.9-23.6c-7.4-4.3-13.8-10.4-20.6-15.6
		C1514.5,914.7,1514.5,946.3,1514.5,977.9z M1059.5,939.3c-0.7,2.9-0.4,4.7,3.1,4.5c3.3-0.2,6.7-0.2,10-0.1c3.5,0,3.6-1.7,2.7-4.3
		C1070,939.3,1064.8,939.3,1059.5,939.3z M1059.6,928.2c-1.1,3.4-0.3,4.8,3,4.6c3.3-0.2,6.6-0.2,9.9-0.1c3.5,0.1,3.6-1.7,2.8-4.4
		C1070.1,928.2,1065,928.2,1059.6,928.2z M1060.4,983c-0.3,0.6-0.6,1.2-0.9,1.7c1.2,1,2.3,2.7,3.6,2.8c3.4,0.4,7,0.2,10.4-0.1
		c1-0.1,1.9-1.6,2.9-2.4c-0.9-0.7-1.8-1.9-2.7-2C1069.3,982.9,1064.9,983,1060.4,983z M1076.2,994.3c-5.2,0-10.4,0-15.6,0
		c-1.6,4.5,1,4.4,4,4.4C1076.4,998.7,1076.4,998.8,1076.2,994.3z M1075.5,954.7c0.3-0.5,0.6-1.1,0.9-1.6c-1-1-2-2.9-3-3
		c-4.5-0.3-9.1-0.1-13.7-0.1c-0.3,0.5-0.6,1.1-0.8,1.6c1.1,1,2.2,2.8,3.4,2.9C1066.6,954.9,1071,954.7,1075.5,954.7z M1059.7,921.6
		c4.6,0,8.9,0.2,13.1-0.1c1.3-0.1,2.4-1.9,3.5-2.9c-0.3-0.5-0.6-1-1-1.4c-4.3,0-8.5,0.1-12.8,0
		C1059.2,916.9,1058.5,918.3,1059.7,921.6z M1075.4,906.1c-4.7,0-9,0.1-13.3,0c-3.8-0.1-3.3,2-2.6,4.3
		C1073.1,911.7,1075.2,911.2,1075.4,906.1z M1059.6,895c-0.4,0.7-0.8,1.4-1.2,2c1.3,0.9,2.5,2.4,3.9,2.5c3.3,0.3,6.6,0.2,9.9-0.1
		c1.1-0.1,2.1-1.4,3.1-2.2c-1-0.8-1.9-2.1-3-2.2C1068.2,894.9,1063.9,895,1059.6,895z M1075.5,961.4c-5.2,0-10.4,0-15.6,0
		c0.2,4.9,0.7,5,12.6,4.2C1075.5,965.5,1076.8,964.6,1075.5,961.4z M1058.9,873.3c0.3,5,0.8,5.1,12.6,4.4c3.1-0.2,4.3-1.1,3-4.4
		C1069.4,873.3,1064.3,873.3,1058.9,873.3z M1060.4,972.3c-1.6,5.2,1.9,4.4,4.6,4.4c11,0,11,0,10.6-4.4
		C1070.5,972.3,1065.5,972.3,1060.4,972.3z M1059.5,884.3c-0.4,4.3-0.4,4.3,3.4,4.4c12,0.3,12,0.3,11.8-4.4
		C1069.6,884.3,1064.5,884.3,1059.5,884.3z"/>
	<path class="st1" d="M755.1,1541.7c0-13.2,0-26.1,0-39.6c2.8-0.1,5.6-0.2,9.1-0.4c0-21.8,0-43.5,0-65.8c6,0,11.3,0,16.6,0
		c2,0,4.4,0.7,5-2.6c0.1-0.6,2.1-1.3,3.2-1.3c7.8-0.1,15.7-0.1,23.5,0c1.1,0,2.5,0.2,3.2,0.9c3.9,4.2,6.5,4.3,10.1,0.1
		c0.5-0.6,1.7-1,2.6-1c8.3-0.1,16.7,0,25,0c0.5,0,1.3,0,1.4,0.2c3.7,7.1,10.2,2.5,15.2,3.7c2,0.5,4.2,0.1,6.9,0.1
		c0,22.1,0,43.7,0,65.8c123.4,0,246.3,0,369.7,0c0,13.5,0,26.6,0,40C1082.9,1541.7,919.3,1541.7,755.1,1541.7z M1233.2,1515.5
		c-155.2,0-310,0-464.8,0c0,4.6,0,8.8,0,13c155.1,0,309.8,0,464.8,0C1233.2,1524,1233.2,1519.8,1233.2,1515.5z M784.9,1501.6
		c0-18.7,0-36.9,0-55.1c-3.6,0-6.6,0-9.6,0c0,18.6,0,36.8,0,55.1C778.7,1501.6,781.6,1501.6,784.9,1501.6z M856.4,1446.3
		c0,18.7,0,37,0,55.3c3.4,0,6.4,0,9.5,0c0-18.6,0-36.9,0-55.3C862.5,1446.3,859.7,1446.3,856.4,1446.3z M796.4,1442.3
		c0,20.1,0,39.7,0,59.3c3.1,0,5.7,0,8.5,0c0-19.9,0-39.6,0-59.3C801.8,1442.3,799.3,1442.3,796.4,1442.3z M845,1501.6
		c0-19.8,0-39.4,0-59.2c-3.1,0-5.8,0-8.8,0c0,19.8,0,39.4,0,59.2C839.2,1501.6,841.7,1501.6,845,1501.6z M816.4,1446.3
		c0,18.7,0,37,0,55.3c3.1,0,5.7,0,8.5,0c0-18.6,0-36.9,0-55.3C821.8,1446.3,819.4,1446.3,816.4,1446.3z"/>
	<path class="st1" d="M1540.6,1509.3c-7.5-0.2-13.8-2.6-19.1-8c-27.4-27.5-54.6-55.2-82.4-82.3c-12.1-11.8-11.6-29.4,0.3-41.1
		c23.8-23.5,47.4-47.3,71.1-71c77.3-77.3,154.6-154.5,231.8-231.9c11.1-11.1,30.1-12.1,41.8,0c27.1,28.2,55.2,55.6,82.9,83.2
		c9.4,9.4,9.6,26.1,0.1,35.6c-102.8,102.7-205.5,205.5-308.3,308.2C1553.7,1507.1,1547.5,1509,1540.6,1509.3z M1861.4,1176.7
		c-2.2-3.9-3.5-8-6.2-10.7c-27.5-27.8-55.3-55.5-83-83.1c-1.1-1.1-2.5-2.1-4-2.7c-6.4-2.6-11.4-0.4-16,4.3
		c-101.1,101.1-202.2,202.3-303.4,303.3c-7.3,7.3-7.2,15.4,0.2,22.7c27,26.8,53.8,53.7,80.6,80.6c6.9,6.9,14.7,6.9,21.7-0.1
		c101.6-101.6,203.2-203.1,304.7-304.8C1858.3,1183.8,1859.3,1180.4,1861.4,1176.7z"/>
	<path class="st1" d="M1873.1,1392.3c0.2,8.6-2.3,14.5-7.3,19.6c-28.7,28.6-57.3,57.2-85.9,85.8c-9.7,9.7-26.7,10-36.5,0.2
		c-26.5-26.3-52.8-52.7-79.2-79.1c-3.9-3.9-4.4-8.5-1.4-11.3c3-2.8,7.3-2.2,11.3,1.8c25.7,25.7,51.4,51.3,77,77.1
		c6.5,6.5,14.1,7.1,20.9-0.1c11.5-12.1,23.4-23.7,35.3-35.4c15.4-15.2,30.9-30.2,46.3-45.4c7.4-7.3,8-14.6,0-22.5
		c-24.7-24.1-48.9-48.7-73.3-73c-1.1-1.1-2.4-2-3.1-3.2c-1.8-3.2-2.7-6.4,0.5-9.4c3-2.8,6.2-1.9,9.1-0.1c2,1.3,3.6,3.4,5.4,5.2
		c12.3,12.2,24.4,24.6,36.8,36.7c11.9,11.8,24.1,23.4,36.1,35.1C1871.1,1380.2,1873.1,1385.5,1873.1,1392.3z"/>
	<path class="st1" d="M1427.8,1172.2c-0.3-8.3,2.6-14.4,7.9-19.7c20.1-20,40.1-40,60.1-60.1c7.6-7.7,15.1-15.4,22.4-23.4
		c9.7-10.7,29.6-11.4,40.8,0c24.3,24.9,49.2,49.3,73.7,74c2.1,2.1,3.8,4.6,5.4,7c2.1,3,1.1,6.3-1.5,7.7c-2.2,1.1-5.4,0.6-8.2,0.2
		c-1-0.1-1.9-1.7-2.8-2.7c-24.9-24.9-49.8-49.6-74.5-74.6c-7.6-7.7-15.5-8.8-24.1-0.1c-26.6,27.1-53.6,53.8-80.5,80.7
		c-7.3,7.3-7.4,14.1-0.1,21.4c11.4,11.4,22.8,22.9,34.3,34.3c13.6,13.4,27.4,26.7,41,40.1c2.3,2.2,4.5,4.5,2.9,8.2
		c-2.3,5.4-7.7,6.3-12.3,1.8c-9.5-9.4-18.9-18.8-28.3-28.2c-16.1-16.1-32.2-32.3-48.5-48.4C1430.2,1185.1,1427.3,1179,1427.8,1172.2
		z"/>
	<path class="st1" d="M1444.7,1335.8c1.5-2.4,2.2-4.3,3.5-5.6c17.4-17.5,34.8-34.9,52.3-52.3c3.9-3.9,7-4,10.3-0.9
		c3.4,3.3,3.3,6.6-0.7,10.7c-17.2,17.2-34.3,34.5-51.7,51.4c-2,1.9-5.9,2.7-8.8,2.4C1447.8,1341.4,1446.4,1338,1444.7,1335.8z"/>
	<path class="st1" d="M1799.1,1295.1c-7.1,0-9.9-4.1-7.6-9.2c0.6-1.3,1.5-2.5,2.6-3.6c16.7-16.8,33.3-33.5,50.2-50.1
		c1.8-1.8,4.8-2.9,7.3-3.2c1.8-0.1,4.5,1.4,5.4,3c0.9,1.6,0.4,4.3-0.1,6.3c-0.2,1.1-1.6,2-2.6,3c-16.9,17-33.9,33.9-50.9,50.8
		C1801.9,1293.7,1799.8,1294.6,1799.1,1295.1z"/>
	<path class="st1" d="M1462.7,1301.3c-1.9-1.8-4.3-3.1-4.9-5c-0.6-1.9-0.3-5.2,0.9-6.5c8.8-9.3,18-18.3,27.1-27.3
		c3.2-3.2,7-3.3,9.6-0.7c2.5,2.6,2.2,7.2-0.7,10.2c-8.6,8.6-17.1,17.3-25.8,25.8C1467.5,1299.1,1465.4,1299.8,1462.7,1301.3z"/>
	<path class="st1" d="M1812.8,1311.1c-1.9-1.5-4.8-2.7-5.5-4.7c-0.6-2,0.3-5.4,1.7-7c8.6-9.1,17.6-17.7,26.4-26.6
		c3-3,6.3-2.9,9.3-0.6c3.3,2.5,3.2,6.3,0.1,9.5c-8.8,9.1-17.8,18-26.9,26.8C1817,1309.6,1815.2,1310,1812.8,1311.1z"/>
	<path class="st1" d="M1779.1,1430.8c0.1,7.3-4.7,12.2-11.8,12.4c-8.1,0.1-12.2-5-12.4-12.2c-0.2-6.2,5.7-11.9,11.9-12.1
		C1773.5,1418.7,1779.1,1424.2,1779.1,1430.8z"/>
	<path class="st1" d="M1551.1,1202.9c0,7.3-4.8,12.2-11.9,12.2c-6.8,0.1-12.2-5.2-12.4-11.9c-0.1-6.4,5.7-12.4,12.1-12.4
		C1546.1,1190.9,1551.1,1195.8,1551.1,1202.9z"/>
	<path class="st1" d="M1747.1,1399.4c0,7.4-4.3,11.6-11.7,11.7c-8.9,0.1-11.9-5.7-12.5-12.1c-0.5-5.9,6.1-12.5,12-12
		C1741.4,1387.5,1747.4,1390.5,1747.1,1399.4z"/>
	<path class="st1" d="M1809.1,1401.1c0,7.2-4.9,12-12.1,12c-7,0-12.2-5-12.1-12c0.1-6.5,5.1-12.3,12.8-12.2
		C1803.9,1389.1,1809.5,1393.7,1809.1,1401.1z"/>
	<path class="st1" d="M1569.2,1185.1c-6.3,0-12.3-5.6-12.3-11.6c0-6.5,5.6-12.7,11.9-12.6c7.1,0.1,12.4,4.1,12.4,12.1
		C1581.1,1180.2,1576.3,1185.1,1569.2,1185.1z"/>
	<path class="st1" d="M1536.1,1152.1c-7.4,0-12.3-4.7-12.3-11.7c0-6.8,4.9-11,11.9-11.7c6.8-0.7,12.5,5.2,12.4,11.6
		C1548.1,1147.6,1543.6,1152.1,1536.1,1152.1z"/>
	<path class="st1" d="M1518.1,1170.5c0.1,9-5.5,12.1-11.6,12.5c-6.4,0.4-12.6-5.8-12.6-12.1c0-6.2,5.8-12.1,11.9-12.1
		C1513.6,1158.8,1518.1,1163.2,1518.1,1170.5z"/>
	<path class="st1" d="M1777.1,1369.5c0,7.3-4.3,11.6-11.7,11.6c-7.5,0-11.6-4.2-11.6-12c0-7.4,4.8-12.8,11.7-12.1
		C1771.9,1357.7,1777.4,1360.7,1777.1,1369.5z"/>
	<path class="st0" d="M409.7,874.1c0,6.1,0,11.5,0,17.7c-2.1,0-4,0-5.9,0c-45.3,0-90.6,0.2-136-0.1c-20.1-0.1-39.2,15.3-43.9,35.1
		c-0.7,3-1,6.2-1,9.3c0,138.8,0,277.6,0,416.4c0,2.2,0,4.3,0,6.9c-5.8,0-11.3,0-17.7,0c0-1.8,0-3.7,0-5.6
		c0-142.3-0.1-284.6,0.1-426.9c0-21.5,14.4-40.9,33.9-48.5c7.2-2.8,15.3-4.1,23-4.1c47-0.4,94-0.2,141-0.2
		C405.1,874.1,407.1,874.1,409.7,874.1z"/>
	<path class="st0" d="M409.6,911.1c0,6,0,11.4,0,17.7c-1.9,0-3.8,0-5.7,0c-41.2,0-82.3,0.1-123.5-0.1c-11.7-0.1-20.7,9-20.6,20.8
		c0.1,134.3,0.1,268.7,0.1,403c0,2.2,0,4.3,0,6.9c-5.8,0-11.3,0-17.7,0c0-1.6,0-3.3,0-5.1c0-138,0-276,0-414
		c0-16.7,12.6-29.2,29.4-29.2c44.2,0,88.3,0,132.5,0C405.7,911.1,407.3,911.1,409.6,911.1z"/>
	<path class="st0" d="M518.9,1551.3c0-3.5,0-7.2,0-11.4c-3.5,0-6.8,0-10.4,0c0-79.3,0-158.2,0-237.5c14.3,0,28.5,0,43,0
		c0,79,0,157.8,0,237.2c-3.3,0-6.6,0-10.3,0c0,4.2,0,7.9,0,11.2c14.2,1.8,28.6,3.7,42.9,5.5c0.1,0.9,0.1,1.8,0.2,2.7
		c-5.4,1.2-10.8,3.3-16.2,3.6c-12.5,0.5-25,0.2-37.9,0.2c0,3.6,0,7,0,11.3c1.6,0,3.3,0,5.1,0c11.8,0,23.7-0.1,35.5,0
		c9.6,0.1,17.4-3.8,24.6-9.7c1.3-1.1,3.9-1.7,5.4-1.1c5.2,2.1,10.2,4.6,15,7.5c1.5,0.9,2.6,3.4,2.9,5.4c0.5,2.9,0.1,5.9,0.1,9.3
		c-59.2,0-118.1,0-177.7,0c0-3.7-0.4-7.5,0.2-11.2c0.2-1.5,2.1-3.2,3.6-4c14.3-7.9,29.5-13.6,45.7-16
		C499.9,1552.8,509.3,1552.3,518.9,1551.3z"/>
	<path class="st0" d="M648.4,1090.1c-5.2-0.8-10.5-1.6-15.7-2.4c-11-1.6-22-3.3-33-4.8c-13.3-1.9-25.9,0.9-38.4,5.6
		c-7.2,2.7-15.3,3.1-23.1,4.4c-12.1,2.2-23.9-0.3-35.5-3.1c-7-1.7-13.6-5.3-20.6-6.1c-10.2-1.1-20.7-1.3-30.9-0.2
		c-12.2,1.2-24.1,4.2-36.2,6.4c-1.1,0.2-2.3,0-3.5,0c-0.3-0.5-0.6-1-0.9-1.5c2.6-1.7,5.1-4.5,7.9-5c13.2-2.4,26.5-4.7,39.8-6.1
		c18.5-1.9,37.1-3.3,55.7-4c16.4-0.7,32.9-1.3,49.2,0.1c25.9,2.3,51.8,6.3,77.6,9.9c2.9,0.4,5.5,3.2,8.3,5
		C648.9,1088.9,648.7,1089.5,648.4,1090.1z"/>
	<path class="st0" d="M534.4,1290.6c-2.9,0-5.7,0-8.9,0c0-61.6,0-123.3,0-185.2c2.9,0,5.7,0,8.9,0
		C534.4,1167,534.4,1228.7,534.4,1290.6z"/>
	<path class="st0" d="M570.6,1214.4c18.9,0,37.7,0,56.9,0c0,4.5,0,9.1,0,14.1c-18.7,0-37.6,0-56.9,0
		C570.6,1224.1,570.6,1219.5,570.6,1214.4z"/>
	<path class="st0" d="M595.5,1240.3c2.8,0,5.3,0,8,0c0,8.1,0,15.9,0,24.2c-2.6,0-5.1,0-8,0C595.5,1256.6,595.5,1248.7,595.5,1240.3z
		"/>
	<path class="st0" d="M1217.1,1333c-8.6-14.5-17.2-27.2-23.9-40.8c-4.6-9.4-12.1-9.9-20.1-9.9c-9,0-18.1,0.8-27.1,1.5
		c-10.8,0.9-20.6,5.2-29.4,11c-14.1,9.2-27.5,19.4-41.3,29.1c-4.3,3-8.9,5.8-13.9,9c-3.2-8.8-6.2-17.1-9.3-25.5
		c-7-18.8-14.1-37.4-20.9-56.3c-6.6-18.4-18.8-32.3-33.9-44.1c-11.3-8.8-22.2-18.1-33.6-26.7c-19.3-14.6-38.9-29-58.4-43.3
		c-13.4-9.8-26.8-19.6-40.3-29.3c-18.3-13.2-36.6-26.4-55-39.5c-14.7-10.5-29.4-21-44.1-31.5c-19.7-14-39.5-28-59.2-42
		c-11.3-8.1-23.2-15.5-33.7-24.5c-13.2-11.2-16.2-24.6-5.7-40.3c5.8-8.6,12.7-15.5,23.3-17.9c6-1.4,12.1-0.7,17,2.1
		c8.8,5.1,17.2,11,25.2,17.3c17.5,14,34.7,28.4,52,42.7c15.2,12.6,30.4,25.3,45.6,37.9c10.9,9,21.8,17.9,32.6,26.9
		c15.2,12.6,30.3,25.3,45.5,37.9c10.7,8.9,21.6,17.6,32.3,26.6c15,12.6,29.6,25.5,44.8,37.9c16.6,13.6,33.4,27.1,50.5,39.9
		c15.3,11.4,33.4,17.2,51.5,22.8c24.1,7.4,49,9.9,73.9,12.9c11.5,1.4,23.2,3.6,33.5,9.9c10.5,6.4,18.3,15.1,21.8,26.6
		c3.3,11,5.8,22.5,6.5,33.9c0.7,12.9-0.9,26-1.9,39C1221.1,1328.4,1218.9,1330.3,1217.1,1333z M1049.7,1260.9
		c0.4,0.3,0.8,0.5,1.2,0.8c-0.8,6.6,6,17.6,10.3,21.9c4,4,9.3,5.7,14.5,2.7c12.2-6.9,24.3-14,35.9-21.8c2.6-1.7,3.9-7,3.9-10.6
		c0-8.9-5.9-15.2-11.4-21.3c-4.1-4.5-10.6-4.9-15.9-1.7c-10.6,6.4-21.2,12.9-31.4,20.1C1053.7,1253.2,1052,1257.5,1049.7,1260.9z
		 M725.2,948.3c-0.2-17.4-11.2-28.7-25.8-29.1c-18.2-0.6-28.5,9.6-29.1,26.6c-0.5,15.9,10.3,28,26.9,28.1
		C713.4,974,724.3,963,725.2,948.3z"/>
	<path class="st0" d="M1130.8,1301.9c3.9,8,7,15,10.6,21.6c7.3,13.4,14.9,26.6,22.9,40.9c-27.7-6.4-53-15.7-75.6-34
		C1102.9,1320.8,1117.3,1311,1130.8,1301.9z"/>
	<path class="st0" d="M1089.1,1003c-0.5-45-1-89.7-1.6-134.7c11.7,0,22.9-0.1,34.2,0c11.9,0.1,23.9,0.6,35.8,0.8
		c11.6,0.2,23.2,0.2,34.9,0.4c12.1,0.2,24.2,0.5,36.4,0.7c23.4,0.4,46.8,0.7,70.2,1.1c23.6,0.4,47.1,0.8,70.7,1.2
		c12,0.2,23.9,0.5,35.9,0.7c23.6,0.4,47.2,0.6,70.7,1.1c7.7,0.2,15.5,0.9,24.2,1.4c0,36.8,0,73.7,0,110.8c-0.2,0-0.9,0.2-1.5,0.3
		c-13.8,0.4-27.5,0.8-41.3,1.3c-15.1,0.5-30.2,1.1-45.3,1.7c-8.9,0.4-17.9,0.8-26.8,1.1c-14.1,0.5-28.2,1-42.3,1.5
		c-11.8,0.4-23.5,1-35.3,1.5c-11.9,0.5-23.9,0.8-35.8,1.3c-11.8,0.5-23.5,1.1-35.3,1.6c-11.8,0.5-23.5,0.8-35.3,1.2
		c-11.8,0.5-23.5,1-35.3,1.5c-11.9,0.5-23.9,0.9-35.8,1.4c-11.4,0.4-22.9,0.8-34.3,1.3C1093.8,1002.2,1091.8,1002.6,1089.1,1003z"/>
	<path class="st0" d="M1612.4,956.3c-17.6,0-35,0-52.9,0c0-17.5,0-35,0-53c17.5,0,34.9,0,52.9,0
		C1612.4,920.6,1612.4,938,1612.4,956.3z"/>
	<path class="st0" d="M1514.5,977.9c0-31.6,0-63.2,0-95.2c6.8,5.2,13.1,11.3,20.6,15.6c9.7,5.6,11.7,13.4,10.9,23.6
		c-0.7,8.6-0.2,17.3,0,26c0.1,4.1-0.7,6.9-4.3,9.6c-8.8,6.6-17.2,14-25.7,21C1515.5,978.2,1515,978.1,1514.5,977.9z"/>
	<path class="st0" d="M1059.5,939.3c5.3,0,10.4,0,15.8,0c0.9,2.6,0.8,4.4-2.7,4.3c-3.3,0-6.7-0.1-10,0.1
		C1059.2,944,1058.9,942.2,1059.5,939.3z"/>
	<path class="st0" d="M1059.6,928.2c5.4,0,10.5,0,15.8,0c0.8,2.8,0.7,4.5-2.8,4.4c-3.3-0.1-6.6-0.1-9.9,0.1
		C1059.4,933,1058.6,931.6,1059.6,928.2z"/>
	<path class="st0" d="M1060.4,983c4.4,0,8.9-0.1,13.3,0.1c0.9,0,1.8,1.3,2.7,2c-1,0.8-1.8,2.3-2.9,2.4c-3.5,0.3-7,0.5-10.4,0.1
		c-1.3-0.1-2.4-1.8-3.6-2.8C1059.8,984.2,1060.1,983.6,1060.4,983z"/>
	<path class="st0" d="M1076.2,994.3c0.2,4.5,0.2,4.4-11.6,4.4c-3,0-5.5,0-4-4.4C1065.8,994.3,1071,994.3,1076.2,994.3z"/>
	<path class="st0" d="M1075.5,954.7c-4.4,0-8.9,0.2-13.3-0.1c-1.2-0.1-2.3-1.9-3.4-2.9c0.3-0.5,0.6-1.1,0.8-1.6
		c4.6,0,9.2-0.2,13.7,0.1c1.1,0.1,2,1.9,3,3C1076.1,953.7,1075.8,954.2,1075.5,954.7z"/>
	<path class="st0" d="M1059.7,921.6c-1.2-3.3-0.4-4.7,2.9-4.5c4.3,0.2,8.5,0,12.8,0c0.3,0.5,0.6,1,1,1.4c-1.2,1-2.3,2.8-3.5,2.9
		C1068.5,921.8,1064.2,921.6,1059.7,921.6z"/>
	<path class="st0" d="M1075.4,906.1c-0.2,5.1-2.3,5.6-15.9,4.3c-0.6-2.3-1.2-4.4,2.6-4.3C1066.4,906.1,1070.7,906.1,1075.4,906.1z"
		/>
	<path class="st0" d="M1059.6,895c4.3,0,8.6-0.1,12.9,0.1c1,0.1,2,1.4,3,2.2c-1,0.8-2,2.1-3.1,2.2c-3.3,0.3-6.7,0.4-9.9,0.1
		c-1.4-0.1-2.6-1.7-3.9-2.5C1058.8,896.4,1059.2,895.7,1059.6,895z"/>
	<path class="st0" d="M1075.5,961.4c1.3,3.2,0,4.1-3.1,4.2c-11.8,0.7-12.3,0.6-12.6-4.2C1065.1,961.4,1070.3,961.4,1075.5,961.4z"/>
	<path class="st0" d="M1058.9,873.3c5.4,0,10.5,0,15.6,0c1.3,3.3,0.1,4.2-3,4.4C1059.6,878.4,1059.1,878.3,1058.9,873.3z"/>
	<path class="st0" d="M1060.4,972.3c5.1,0,10.1,0,15.2,0c0.3,4.4,0.3,4.4-10.6,4.4C1062.3,976.7,1058.8,977.5,1060.4,972.3z"/>
	<path class="st0" d="M1059.5,884.3c5.1,0,10.1,0,15.2,0c0.2,4.7,0.2,4.7-11.8,4.4C1059,888.6,1059,888.6,1059.5,884.3z"/>
	<path class="st0" d="M1233.2,1515.5c0,4.3,0,8.5,0,13c-154.9,0-309.6,0-464.8,0c0-4.2,0-8.4,0-13
		C923.1,1515.5,1078,1515.5,1233.2,1515.5z"/>
	<path class="st0" d="M784.9,1501.6c-3.3,0-6.3,0-9.6,0c0-18.3,0-36.5,0-55.1c3,0,6.1,0,9.6,0
		C784.9,1464.7,784.9,1482.9,784.9,1501.6z"/>
	<path class="st0" d="M856.4,1446.3c3.3,0,6.1,0,9.5,0c0,18.4,0,36.7,0,55.3c-3.1,0-6,0-9.5,0C856.4,1483.3,856.4,1465,856.4,1446.3
		z"/>
	<path class="st0" d="M796.4,1442.3c2.9,0,5.4,0,8.5,0c0,19.7,0,39.4,0,59.3c-2.7,0-5.3,0-8.5,0
		C796.4,1482,796.4,1462.4,796.4,1442.3z"/>
	<path class="st0" d="M845,1501.6c-3.3,0-5.9,0-8.8,0c0-19.8,0-39.3,0-59.2c3,0,5.7,0,8.8,0C845,1462.2,845,1481.7,845,1501.6z"/>
	<path class="st0" d="M816.4,1446.3c3,0,5.4,0,8.5,0c0,18.4,0,36.7,0,55.3c-2.8,0-5.4,0-8.5,0C816.4,1483.3,816.4,1465,816.4,1446.3
		z"/>
	<path class="st0" d="M1861.4,1176.7c-2.1,3.7-3.1,7.1-5.3,9.4c-101.5,101.7-203.1,203.2-304.7,304.8c-7,7-14.8,7-21.7,0.1
		c-26.9-26.9-53.7-53.8-80.6-80.6c-7.4-7.3-7.5-15.4-0.2-22.7c101.2-101,202.3-202.1,303.4-303.3c4.6-4.6,9.6-6.9,16-4.3
		c1.5,0.6,2.8,1.6,4,2.7c27.7,27.7,55.5,55.3,83,83.1C1857.8,1168.8,1859.2,1172.8,1861.4,1176.7z M1694.3,1201.8
		c-4.8-4.8-9.2-9.4-13.7-13.8c-4-4-7.4-4.1-10.7-0.7c-3.1,3.3-2.9,6.4,1,10.3c23.2,23.2,46.3,46.4,69.6,69.5
		c3.8,3.8,7.9,4.1,10.9,1.1c2.9-3,2.5-7-1.3-10.9c-3.4-3.4-6.9-6.6-11-10.5c8.4-2.8,10.1-8.5,8.9-15.3c-1-5.7-6.1-7.8-10.8-8.5
		c-6.1-1-10.2,2.9-12.4,7.7c-4.9-4.7-9.7-9.2-14.6-13.8c7.6-5,9.8-9.1,7.8-15.8c-1.6-5.4-6.4-7.1-11.3-8.3
		C1702.5,1192,1697.8,1195.5,1694.3,1201.8z M1569.3,1324.5c-5.3,4.2-8.4,8.7-7.2,14.9c1.2,6.2,6.1,9,11.7,9.5
		c5.2,0.5,9.7-1.8,11.5-6.9c4.6,4.4,9,8.6,13.4,12.9c-4.5,4-8.1,8.4-6.6,14.9c1.3,5.4,5.4,8.4,10.4,9.3c5.9,1,10.5-1.6,13.1-8.1
		c3.9,4.1,7.4,7.9,11,11.6c3.1,3.2,8.6,3.7,11,1.2c2.3-2.4,1.7-7.5-1.2-10.8c-0.4-0.5-0.9-0.9-1.4-1.4
		c-22.2-22.2-44.5-44.5-66.7-66.7c-0.9-0.9-1.8-2.1-3-2.6c-3.4-1.6-7-2.7-9.9,0.8c-2.9,3.5-1.8,6.7,1.3,9.6
		C1560.9,1316.4,1564.9,1320.3,1569.3,1324.5z M1497.9,1401c0,6.9,4.9,12.1,11.5,12.1c6.9,0.1,12.8-5.5,12.8-12.1
		c0-6.4-5.9-12.2-12.3-12.1C1502.8,1389,1497.8,1394,1497.9,1401z M1750.1,1171.8c0-7-5.1-12-12.2-12c-6.2,0-12.1,6.2-12.1,12.6
		c0,6.2,5.6,11.6,12.1,11.7C1745.5,1184.2,1750.2,1179.4,1750.1,1171.8z M1540.1,1443.1c5.9,0.4,11.7-4.6,11.9-12.3
		c0.2-6.2-6.3-12.4-12.7-11.9c-6.2,0.5-11.4,3.5-11.5,12C1527.8,1438.7,1532.4,1443.2,1540.1,1443.1z M1542.1,1380.1
		c7.3,0,12.2-4.9,12-11.9c-0.1-6.5-6-12.4-12.2-12.3c-6.3,0.1-12,6-12,12.5C1529.8,1375.4,1534.8,1380.2,1542.1,1380.1z
		 M1584.1,1399c0-7.8-4.4-12.2-12.1-12.2c-6.1,0-11.8,5.6-12,11.9c-0.2,5.9,5.8,12.2,11.8,12.3
		C1578,1411.2,1585.2,1406.4,1584.1,1399z M1770.1,1152.1c7.5,0,12.1-4.5,12-11.8c-0.2-7.8-5.2-11.5-12.1-12.2
		c-6.1-0.6-12.1,5.8-12.1,11.8C1757.9,1146.1,1762.6,1153.2,1770.1,1152.1z M1756.9,1202.7c0,7.2,5.2,12.6,11.8,12.4
		c6.6-0.2,12.9-6.1,12.2-12.3c-0.8-7.6-4.1-12.1-12.6-12C1761.1,1190.9,1756.8,1195.3,1756.9,1202.7z M1799.7,1182.1
		c6.7,1.3,12.5-5.1,12.4-11.4c-0.1-7.3-4.6-11.8-12.1-11.8c-7.4,0-12.3,4.7-12.3,11.7C1787.9,1177.4,1792.7,1182.1,1799.7,1182.1z"
		/>
	<path class="st1" d="M1049.7,1260.9c2.3-3.4,4-7.7,7.2-9.9c10.1-7.1,20.8-13.6,31.4-20.1c5.3-3.2,11.8-2.8,15.9,1.7
		c5.5,6.1,11.4,12.5,11.4,21.3c0,3.6-1.3,8.8-3.9,10.6c-11.6,7.8-23.8,14.8-35.9,21.8c-5.3,3-10.5,1.3-14.5-2.7
		c-4.4-4.3-11.1-15.3-10.3-21.9C1050.4,1261.4,1050,1261.2,1049.7,1260.9z M1076.8,1277.4c-4.8-7-9.5-13.9-14.2-20.9
		c-6.6,6.5-5,6,3.4,20C1068.2,1280.1,1072.4,1280.4,1076.8,1277.4z M1068.1,1252.9c2.5,4.2,4.6,7.7,6.8,11.2
		c2.2,3.4,4.5,6.7,6.9,10.1c2.1-1.2,3.6-2.1,5.7-3.4c-4.5-7.3-8.9-14.3-13.3-21.5C1071.8,1250.7,1070,1251.8,1068.1,1252.9z
		 M1091.4,1239c4.5,7.2,8.8,14,13.3,21.3c3.8-3.7,4.3-7.3,2.1-11.2c-1.5-2.7-3.1-5.4-4.8-8C1099.5,1237.3,1095.8,1236.5,1091.4,1239
		z M1079.6,1245.7c4.4,7,8.8,14.1,14.1,22.5c1.7-2.9,4.3-5.6,3.8-6.6c-3.5-6.6-7.8-12.7-11.8-19.1
		C1083.3,1243.7,1081.6,1244.7,1079.6,1245.7z"/>
	<path class="st1" d="M725.2,948.3c-0.8,14.7-11.8,25.8-27.9,25.6c-16.7-0.2-27.5-12.2-26.9-28.1c0.6-17,10.8-27.2,29.1-26.6
		C714,919.6,724.9,930.9,725.2,948.3z M680.3,946.7c-0.5,8,7.8,16.4,16.8,16.9c7.9,0.4,16.6-8,17.4-16.9c0.7-7.8-7.9-16.5-16.9-17
		C688.2,929.1,681,936.2,680.3,946.7z"/>
	<path class="st1" d="M1694.3,1201.8c3.4-6.3,8.2-9.8,12.4-8.8c4.8,1.1,9.7,2.8,11.3,8.3c2,6.7-0.2,10.8-7.8,15.8
		c4.8,4.6,9.6,9.1,14.6,13.8c2.2-4.8,6.3-8.7,12.4-7.7c4.8,0.8,9.8,2.8,10.8,8.5c1.2,6.8-0.5,12.5-8.9,15.3c4.1,3.9,7.6,7.1,11,10.5
		c3.8,3.9,4.2,7.9,1.3,10.9c-2.9,3-7.1,2.7-10.9-1.1c-23.2-23.2-46.4-46.3-69.6-69.5c-3.9-3.9-4.1-7-1-10.3
		c3.3-3.5,6.6-3.3,10.7,0.7C1685.1,1192.4,1689.5,1197,1694.3,1201.8z"/>
	<path class="st1" d="M1569.3,1324.5c-4.4-4.2-8.5-8.2-12.6-12c-3-2.9-4.1-6.1-1.3-9.6c2.9-3.5,6.5-2.4,9.9-0.8c1.1,0.5,2,1.7,3,2.6
		c22.2,22.2,44.5,44.5,66.7,66.7c0.5,0.5,1,0.9,1.4,1.4c3,3.3,3.5,8.4,1.2,10.8c-2.4,2.5-7.9,1.9-11-1.2c-3.6-3.7-7.1-7.5-11-11.6
		c-2.7,6.5-7.2,9.1-13.1,8.1c-5.1-0.9-9.1-3.9-10.4-9.3c-1.5-6.4,2-10.9,6.6-14.9c-4.4-4.2-8.8-8.5-13.4-12.9
		c-1.8,5.1-6.2,7.4-11.5,6.9c-5.6-0.5-10.5-3.3-11.7-9.5C1560.9,1333.3,1564.1,1328.8,1569.3,1324.5z"/>
	<path class="st1" d="M1497.9,1401c0-7,5-12.1,12-12.2c6.4-0.1,12.3,5.7,12.3,12.1c0,6.6-5.9,12.2-12.8,12.1
		C1502.7,1413.1,1497.9,1407.9,1497.9,1401z"/>
	<path class="st1" d="M1750.1,1171.8c0.1,7.6-4.7,12.3-12.2,12.3c-6.5,0-12.1-5.4-12.1-11.7c0-6.5,5.9-12.6,12.1-12.6
		C1745,1159.8,1750.1,1164.8,1750.1,1171.8z"/>
	<path class="st1" d="M1540.1,1443.1c-7.7,0-12.3-4.4-12.2-12.2c0.1-8.5,5.3-11.6,11.5-12c6.3-0.5,12.8,5.8,12.7,11.9
		C1551.8,1438.6,1546,1443.6,1540.1,1443.1z"/>
	<path class="st1" d="M1542.1,1380.1c-7.3,0-12.3-4.7-12.2-11.7c0-6.5,5.7-12.4,12-12.5c6.2-0.1,12.1,5.9,12.2,12.3
		C1554.3,1375.3,1549.4,1380.1,1542.1,1380.1z"/>
	<path class="st1" d="M1584.1,1399c1,7.4-6.2,12.2-12.4,12.1c-6-0.1-12-6.4-11.8-12.3c0.2-6.3,5.9-11.9,12-11.9
		C1579.8,1386.9,1584.2,1391.3,1584.1,1399z"/>
	<path class="st1" d="M1770.1,1152.1c-7.6,1.1-12.2-6.1-12.3-12.2c0-6.1,6.1-12.4,12.1-11.8c6.9,0.7,12,4.4,12.1,12.2
		C1782.3,1147.6,1777.6,1152.1,1770.1,1152.1z"/>
	<path class="st1" d="M1756.9,1202.7c0-7.4,4.3-11.8,11.5-11.9c8.4-0.1,11.7,4.3,12.6,12c0.7,6.2-5.6,12.1-12.2,12.3
		C1762,1215.3,1756.9,1209.9,1756.9,1202.7z"/>
	<path class="st1" d="M1799.7,1182.1c-7,0-11.9-4.7-11.9-11.6c0-7,4.9-11.7,12.3-11.7c7.5,0,12,4.6,12.1,11.8
		C1812.2,1177,1806.5,1183.5,1799.7,1182.1z"/>
	<path class="st0" d="M1076.8,1277.4c-4.4,3-8.7,2.6-10.8-0.9c-8.4-14-10-13.5-3.4-20C1067.4,1263.5,1072.1,1270.4,1076.8,1277.4z"
		/>
	<path class="st0" d="M1068.1,1252.9c1.9-1.1,3.7-2.2,6.1-3.6c4.4,7.2,8.8,14.2,13.3,21.5c-2.1,1.3-3.6,2.1-5.7,3.4
		c-2.3-3.4-4.7-6.7-6.9-10.1C1072.7,1260.6,1070.6,1257.1,1068.1,1252.9z"/>
	<path class="st0" d="M1091.4,1239c4.5-2.5,8.2-1.7,10.6,2.1c1.7,2.6,3.3,5.2,4.8,8c2.1,3.9,1.7,7.5-2.1,11.2
		C1100.2,1253.1,1095.9,1246.2,1091.4,1239z"/>
	<path class="st0" d="M1079.6,1245.7c1.9-1.1,3.7-2,6-3.2c4.1,6.4,8.3,12.5,11.8,19.1c0.6,1-2.1,3.8-3.8,6.6
		C1088.5,1259.8,1084,1252.7,1079.6,1245.7z"/>
	<path class="st0" d="M680.3,946.7c0.7-10.6,7.9-17.6,17.3-17c8.9,0.5,17.5,9.3,16.9,17c-0.8,8.8-9.5,17.3-17.4,16.9
		C688,963.1,679.7,954.8,680.3,946.7z"/>
</g>
</svg>
